<svg xmlns="http://www.w3.org/2000/svg" version="1.1" xmlns:xlink="http://www.w3.org/1999/xlink" xmlns:svgjs="http://svgjs.dev/svgjs" width="1500" height="935" viewBox="0 0 1500 935"><g transform="matrix(1,0,0,1,-0.9090909090909918,85.0407876334192)"><svg viewBox="0 0 396 247" data-background-color="#ffffff" preserveAspectRatio="xMidYMid meet" height="935" width="1500" xmlns="http://www.w3.org/2000/svg" xmlns:xlink="http://www.w3.org/1999/xlink"><g id="tight-bounds" transform="matrix(1,0,0,1,0.2400000000000091,-0.09999999999999432)"><svg viewBox="0 0 395.52 247.2" height="247.2" width="395.52"><g><svg></svg></g><g><svg viewBox="0 0 395.52 247.2" height="247.2" width="395.52"><g transform="matrix(1,0,0,1,75.54432000000001,105.5301683537159)"><svg viewBox="0 0 244.43135999999996 36.139663292568194" height="36.139663292568194" width="244.43135999999996"><g><svg viewBox="0 0 244.43135999999996 36.139663292568194" height="36.139663292568194" width="244.43135999999996"><g><svg viewBox="0 0 244.43135999999996 36.139663292568194" height="36.139663292568194" width="244.43135999999996"><g><svg viewBox="0 0 244.43135999999996 36.139663292568194" height="36.139663292568194" width="244.43135999999996"><g id="textblocktransform"><svg viewBox="0 0 244.43135999999996 36.139663292568194" height="36.139663292568194" width="244.43135999999996" id="textblock"><g><svg viewBox="0 0 244.43135999999996 36.139663292568194" height="36.139663292568194" width="244.43135999999996"><g transform="matrix(1,0,0,1,0,0)"><svg width="244.43135999999996" viewBox="-0.15 -36.5 318.85999999999996 47.15" height="36.139663292568194" data-palette-color="#b6a522"><path d="M12.2 0.25L12.2 0.25Q8.05 0.25 5.15-1.05 2.25-2.35-0.15-5.15L-0.15-5.15 1.1-6.45Q2.05-5.25 3.18-4.3 4.3-3.35 5.7-2.68 7.1-2 8.78-1.65 10.45-1.3 12.55-1.3L12.55-1.3Q16.05-1.3 18.68-2.33 21.3-3.35 22.75-5.3 24.2-7.25 24.2-9.95L24.2-9.95Q24.2-12.2 23.18-13.43 22.15-14.65 20.08-15.45 18-16.25 14.85-17L14.85-17Q11.75-17.8 9.6-18.57 7.45-19.35 6.33-20.68 5.2-22 5.2-24.5L5.2-24.5Q5.2-27.05 6.2-29.13 7.2-31.2 9.05-32.68 10.9-34.15 13.43-34.95 15.95-35.75 19-35.75L19-35.75Q21.25-35.75 23.05-35.3 24.85-34.85 26.28-33.9 27.7-32.95 28.75-31.55L28.75-31.55 27.5-30.25Q26.8-31.25 25.93-32 25.05-32.75 23.98-33.23 22.9-33.7 21.65-33.93 20.4-34.15 18.9-34.15L18.9-34.15Q15-34.15 12.38-32.9 9.75-31.65 8.4-29.55 7.05-27.45 7.05-24.9L7.05-24.9Q7.05-22.9 8-21.8 8.95-20.7 10.88-20 12.8-19.3 15.85-18.55L15.85-18.55Q19.25-17.7 21.53-16.8 23.8-15.9 24.95-14.43 26.1-12.95 26.1-10.35L26.1-10.35Q26.1-7.65 25.03-5.65 23.95-3.65 22.08-2.33 20.2-1 17.68-0.38 15.15 0.25 12.2 0.25ZM37.25 0.5L37.25 0.5Q31.2 0.5 31.2-6.4L31.2-6.4Q31.2-7.45 31.35-8.65 31.5-9.85 31.8-11.2L31.8-11.2 34.95-26 36.65-26 33.55-11.4Q32.95-8.8 32.95-6.8L32.95-6.8Q32.95-1.1 37.95-1.1L37.95-1.1Q40.2-1.1 42.45-2.15 44.7-3.2 46.67-5.13 48.65-7.05 49.85-9.5L49.85-9.5 53.35-26 55.05-26 50.35-3.75Q50.25-3.3 50.15-2.88 50.05-2.45 50.05-2.35L50.05-2.35Q50.05-1.6 50.8-1.6L50.8-1.6 50.4 0Q50.15 0 49.95 0 49.75 0 49.6-0.05L49.6-0.05Q49.05-0.15 48.72-0.55 48.4-0.95 48.4-1.55L48.4-1.55Q48.4-1.7 48.45-2 48.5-2.3 48.7-3.28 48.9-4.25 49.35-6.4L49.35-6.4Q47.05-3.2 43.8-1.35 40.55 0.5 37.25 0.5ZM55.3 10.65L63.09-26 64.64-26 63.5-20.6Q65.59-23.15 68.52-24.78 71.45-26.4 74.25-26.4L74.25-26.4Q77.2-26.4 79.27-24.83 81.34-23.25 82.45-20.75 83.55-18.25 83.55-15.35L83.55-15.35Q83.55-12.4 82.4-9.55 81.25-6.7 79.25-4.45 77.25-2.2 74.59-0.85 71.95 0.5 69 0.5L69 0.5Q65.75 0.5 63.59-1.35 61.45-3.2 60.5-5.8L60.5-5.8 57 10.65 55.3 10.65ZM69.05-1.1L69.05-1.1Q71.65-1.1 73.95-2.33 76.25-3.55 78.02-5.6 79.8-7.65 80.8-10.15 81.8-12.65 81.8-15.15L81.8-15.15Q81.8-17.75 80.8-19.95 79.8-22.15 77.97-23.48 76.15-24.8 73.65-24.8L73.65-24.8Q72.3-24.8 70.62-24.2 68.95-23.6 67.34-22.53 65.75-21.45 64.55-20.1 63.34-18.75 62.9-17.3L62.9-17.3 61-8.35Q61.4-6.3 62.52-4.67 63.65-3.05 65.32-2.08 67-1.1 69.05-1.1ZM84.39 10.65L92.19-26 93.74-26 92.59-20.6Q94.69-23.15 97.62-24.78 100.54-26.4 103.34-26.4L103.34-26.4Q106.29-26.4 108.37-24.83 110.44-23.25 111.54-20.75 112.64-18.25 112.64-15.35L112.64-15.35Q112.64-12.4 111.49-9.55 110.34-6.7 108.34-4.45 106.34-2.2 103.69-0.85 101.04 0.5 98.09 0.5L98.09 0.5Q94.84 0.5 92.69-1.35 90.54-3.2 89.59-5.8L89.59-5.8 86.09 10.65 84.39 10.65ZM98.14-1.1L98.14-1.1Q100.74-1.1 103.04-2.33 105.34-3.55 107.12-5.6 108.89-7.65 109.89-10.15 110.89-12.65 110.89-15.15L110.89-15.15Q110.89-17.75 109.89-19.95 108.89-22.15 107.07-23.48 105.24-24.8 102.74-24.8L102.74-24.8Q101.39-24.8 99.72-24.2 98.04-23.6 96.44-22.53 94.84-21.45 93.64-20.1 92.44-18.75 91.99-17.3L91.99-17.3 90.09-8.35Q90.49-6.3 91.62-4.67 92.74-3.05 94.42-2.08 96.09-1.1 98.14-1.1ZM119.94 0.25L119.94 0.25Q118.44 0.25 117.57-0.6 116.69-1.45 116.69-2.95L116.69-2.95Q116.69-3.25 116.72-3.53 116.74-3.8 116.79-4.1L116.79-4.1 123.69-36.5 125.39-36.5 118.54-4.45Q118.49-4.25 118.47-4.05 118.44-3.85 118.44-3.6L118.44-3.6Q118.44-1.3 120.99-1.3L120.99-1.3Q121.54-1.3 122.29-1.45 123.04-1.6 123.69-1.8L123.69-1.8 123.79-0.4Q123.04-0.15 121.89 0.05 120.74 0.25 119.94 0.25ZM127.54 0L133.04-26 134.74-26 129.24 0 127.54 0ZM134.39-32.3L135.29-36.5 136.99-36.5 136.09-32.3 134.39-32.3ZM147.84 0.5L147.84 0.5Q144.78 0.5 142.59-1 140.39-2.5 139.19-5 137.99-7.5 137.94-10.5L137.94-10.5Q137.84-13.5 138.89-16.32 139.94-19.15 141.89-21.43 143.84-23.7 146.51-25.05 149.19-26.4 152.34-26.4L152.34-26.4Q154.64-26.4 156.54-25.63 158.44-24.85 159.59-23.28 160.74-21.7 160.74-19.3L160.74-19.3Q160.89-15.35 157.61-13.78 154.34-12.2 147.64-12.2L147.64-12.2Q145.74-12.2 143.64-12.28 141.53-12.35 138.94-12.55L138.94-12.55 139.34-13.95Q142.03-13.8 144.01-13.73 145.99-13.65 147.78-13.65L147.78-13.65Q152.09-13.65 154.59-14.28 157.09-14.9 158.14-16.15 159.19-17.4 159.09-19.25L159.09-19.25Q159.09-21.3 158.04-22.53 156.99-23.75 155.41-24.33 153.84-24.9 152.14-24.9L152.14-24.9Q149.44-24.9 147.11-23.65 144.78-22.4 143.11-20.38 141.44-18.35 140.53-15.88 139.64-13.4 139.69-10.95L139.69-10.95Q139.74-8.15 140.74-5.88 141.74-3.6 143.64-2.27 145.53-0.95 148.24-0.95L148.24-0.95Q151.39-0.95 153.78-2.48 156.19-4 157.54-6.55L157.54-6.55 159.09-6.1Q158.04-4.1 156.39-2.63 154.74-1.15 152.59-0.33 150.44 0.5 147.84 0.5ZM163.53 0L169.03-26 170.68-26 169.28-19.4Q171.28-22.4 173.88-24.08 176.48-25.75 179.13-25.95L179.13-25.95Q179.43-26 179.71-26 179.98-26 180.18-25.95L180.18-25.95 179.83-24.4Q176.43-24.25 173.43-22.13 170.43-20 168.68-16.35L168.68-16.35 165.23 0 163.53 0ZM192.28 0L199.83-35.5 213.38-35.5Q215.88-35.5 217.65-34.2 219.43-32.9 220.33-30.88 221.23-28.85 221.23-26.6L221.23-26.6Q221.23-24.25 220.3-21.95 219.38-19.65 217.73-17.78 216.08-15.9 213.9-14.8 211.73-13.7 209.33-13.7L209.33-13.7 196.93-13.7 194.03 0 192.28 0ZM197.28-15.3L209.63-15.3Q211.68-15.3 213.5-16.32 215.33-17.35 216.65-19 217.98-20.65 218.75-22.63 219.53-24.6 219.53-26.55L219.53-26.55Q219.53-28.55 218.73-30.2 217.93-31.85 216.53-32.88 215.13-33.9 213.23-33.9L213.23-33.9 201.23-33.9 197.28-15.3ZM231.58 0.5L231.58 0.5Q228.38 0.5 226.23-0.95 224.08-2.4 223-4.88 221.93-7.35 221.93-10.3L221.93-10.3Q221.93-13.7 223.15-16.6 224.38-19.5 226.48-21.73 228.58-23.95 231.28-25.18 233.98-26.4 236.83-26.4L236.83-26.4Q240.03-26.4 242.18-24.93 244.33-23.45 245.38-20.98 246.43-18.5 246.43-15.5L246.43-15.5Q246.43-12.15 245.23-9.25 244.03-6.35 241.95-4.15 239.88-1.95 237.2-0.73 234.53 0.5 231.58 0.5ZM231.88-1.1L231.88-1.1Q234.33-1.1 236.63-2.15 238.93-3.2 240.75-5.15 242.58-7.1 243.65-9.68 244.73-12.25 244.73-15.2L244.73-15.2Q244.73-17.85 243.8-20.03 242.88-22.2 241.08-23.5 239.28-24.8 236.53-24.8L236.53-24.8Q234.08-24.8 231.78-23.73 229.48-22.65 227.65-20.68 225.83-18.7 224.75-16.13 223.68-13.55 223.68-10.55L223.68-10.55Q223.68-7.9 224.58-5.75 225.48-3.6 227.33-2.35 229.18-1.1 231.88-1.1ZM249.52 0L255.02-26 256.67-26 255.27-19.4Q257.27-22.4 259.87-24.08 262.47-25.75 265.12-25.95L265.12-25.95Q265.42-26 265.7-26 265.97-26 266.17-25.95L266.17-25.95 265.82-24.4Q262.42-24.25 259.42-22.13 256.42-20 254.67-16.35L254.67-16.35 251.22 0 249.52 0ZM267.42-3.05L267.42-3.05Q267.42-3.3 267.45-3.55 267.47-3.8 267.52-4.05L267.52-4.05 271.87-24.5 268.37-24.5 268.67-26 272.22-26 274.12-34.95 275.82-34.95 273.92-26 279.77-26 279.42-24.5 273.57-24.5 269.67-6.35Q269.42-5.2 269.32-4.65 269.22-4.1 269.22-3.8L269.22-3.8Q269.22-2.6 270.02-1.98 270.82-1.35 271.87-1.35L271.87-1.35Q272.92-1.35 273.82-1.65 274.72-1.95 275.35-2.23 275.97-2.5 276.07-2.6L276.07-2.6 276.37-1.2Q276.27-1.15 275.52-0.78 274.77-0.4 273.65-0.08 272.52 0.25 271.22 0.25L271.22 0.25Q269.57 0.25 268.5-0.63 267.42-1.5 267.42-3.05ZM289.77 0.5L289.77 0.5Q286.92 0.5 284.84-1.05 282.77-2.6 281.64-5.13 280.52-7.65 280.52-10.45L280.52-10.45Q280.52-13.5 281.72-16.35 282.92-19.2 284.97-21.48 287.02-23.75 289.62-25.08 292.22-26.4 295.02-26.4L295.02-26.4Q298.42-26.4 300.54-24.53 302.67-22.65 303.62-20.1L303.62-20.1 304.87-26 306.62-26 301.67-2.85Q301.62-2.75 301.59-2.58 301.57-2.4 301.57-2.25L301.57-2.25Q301.57-1.6 302.27-1.6L302.27-1.6 301.92 0Q301.77 0 301.57 0.03 301.37 0.05 301.22 0L301.22 0Q300.52-0.1 300.19-0.53 299.87-0.95 299.87-1.55L299.87-1.55Q299.87-1.75 299.92-2.02 299.97-2.3 300.12-3.03 300.27-3.75 300.57-5.3L300.57-5.3Q298.52-2.7 295.59-1.1 292.67 0.5 289.77 0.5ZM290.27-1.1L290.27-1.1Q291.77-1.1 293.47-1.7 295.17-2.3 296.74-3.33 298.32-4.35 299.52-5.73 300.72-7.1 301.17-8.6L301.17-8.6 303.07-17.55Q302.82-19.5 301.74-21.13 300.67-22.75 298.92-23.78 297.17-24.8 295.02-24.8L295.02-24.8Q292.52-24.8 290.22-23.55 287.92-22.3 286.14-20.23 284.37-18.15 283.32-15.65 282.27-13.15 282.27-10.6L282.27-10.6Q282.27-8.05 283.32-5.9 284.37-3.75 286.14-2.43 287.92-1.1 290.27-1.1ZM313.26 0.25L313.26 0.25Q311.76 0.25 310.89-0.6 310.01-1.45 310.01-2.95L310.01-2.95Q310.01-3.25 310.04-3.53 310.06-3.8 310.12-4.1L310.12-4.1 317.01-36.5 318.71-36.5 311.87-4.45Q311.81-4.25 311.79-4.05 311.76-3.85 311.76-3.6L311.76-3.6Q311.76-1.3 314.31-1.3L314.31-1.3Q314.87-1.3 315.62-1.45 316.37-1.6 317.01-1.8L317.01-1.8 317.12-0.4Q316.37-0.15 315.21 0.05 314.06 0.25 313.26 0.25Z" opacity="1" transform="matrix(1,0,0,1,0,0)" fill="#b6a522" class="wordmark-text-0" data-fill-palette-color="primary" id="text-0"></path></svg></g></svg></g></svg></g></svg></g><g></g></svg></g></svg></g></svg></g><g><path d="M78.474 96.998A122.216 122.216 0 0 1 317.046 96.998L313.786 96.998A118.957 118.957 0 0 0 81.734 96.998L78.474 96.998M78.474 150.202A122.216 122.216 0 0 0 317.046 150.202L313.786 150.202A118.957 118.957 0 0 1 81.734 150.202L78.474 150.202" fill="#b6a522" stroke="transparent" data-fill-palette-color="tertiary"></path></g></svg></g><defs></defs></svg><rect width="395.52" height="247.2" fill="none" stroke="none" visibility="hidden"></rect></g></svg></g></svg>