<?xml version="1.0" encoding="UTF-8" standalone="no"?>
<!DOCTYPE svg PUBLIC "-//W3C//DTD SVG 1.1//EN"
 "http://www.w3.org/Graphics/SVG/1.1/DTD/svg11.dtd">
<!-- Generated by graphviz version 2.47.0 (20210316.0004)
 -->
<!-- Title: dependencies Pages: 1 -->
<svg width="4413pt" height="284pt"
 viewBox="0.00 0.00 4413.00 284.00" xmlns="http://www.w3.org/2000/svg" xmlns:xlink="http://www.w3.org/1999/xlink">
<g id="graph0" class="graph" transform="scale(1 1) rotate(0) translate(4 280)">
<title>dependencies</title>
<polygon fill="white" stroke="transparent" points="-4,4 -4,-280 4409,-280 4409,4 -4,4"/>
<text text-anchor="start" x="2181.51" y="-42.4" font-family="Times-12" font-weight="bold" font-size="14.00">Legend</text>
<polygon fill="#ffffb3" stroke="transparent" points="1968.5,-10 1968.5,-30 1988.5,-30 1988.5,-10 1968.5,-10"/>
<text text-anchor="start" x="1992.13" y="-15.4" font-family="Times-12" font-size="14.00"> &#160;Declarations</text>
<polygon fill="#8dd3c7" stroke="transparent" points="2081.5,-10 2081.5,-30 2101.5,-30 2101.5,-10 2081.5,-10"/>
<text text-anchor="start" x="2105.23" y="-15.4" font-family="Times-12" font-size="14.00"> &#160;Module</text>
<polygon fill="#80b1d3" stroke="transparent" points="2167.5,-10 2167.5,-30 2187.5,-30 2187.5,-10 2167.5,-10"/>
<text text-anchor="start" x="2191.28" y="-15.4" font-family="Times-12" font-size="14.00"> &#160;Bootstrap</text>
<polygon fill="#fdb462" stroke="transparent" points="2264.5,-10 2264.5,-30 2284.5,-30 2284.5,-10 2264.5,-10"/>
<text text-anchor="start" x="2288.17" y="-15.4" font-family="Times-12" font-size="14.00"> &#160;Providers</text>
<polygon fill="#fb8072" stroke="transparent" points="2360.5,-10 2360.5,-30 2380.5,-30 2380.5,-10 2360.5,-10"/>
<text text-anchor="start" x="2384.23" y="-15.4" font-family="Times-12" font-size="14.00"> &#160;Exports</text>
<g id="clust1" class="cluster">
<title>cluster_AppModule</title>
<polygon fill="none" stroke="black" stroke-dasharray="1,5" points="8,-70 8,-268 4397,-268 4397,-70 8,-70"/>
</g>
<g id="clust30" class="cluster">
<title>cluster_AppModule_imports</title>
<polygon fill="none" stroke="black" points="4120,-78 4120,-130 4389,-130 4389,-78 4120,-78"/>
</g>
<g id="clust2" class="cluster">
<title>cluster_AppModule_declarations</title>
<polygon fill="none" stroke="black" points="16,-78 16,-130 4112,-130 4112,-78 16,-78"/>
</g>
<g id="clust32" class="cluster">
<title>cluster_AppModule_bootstrap</title>
<polygon fill="none" stroke="black" points="2119,-208 2119,-260 2243,-260 2243,-208 2119,-208"/>
</g>
<!-- ActionBarComponent -->
<g id="node1" class="node">
<title>ActionBarComponent</title>
<polygon fill="#ffffb3" stroke="black" points="4103.65,-122 3964.35,-122 3964.35,-86 4103.65,-86 4103.65,-122"/>
<text text-anchor="middle" x="4034" y="-99.8" font-family="Times,serif" font-size="14.00">ActionBarComponent</text>
</g>
<!-- AppModule -->
<g id="node28" class="node">
<title>AppModule</title>
<polygon fill="#8dd3c7" stroke="black" points="2222.66,-187 2219.66,-191 2198.66,-191 2195.66,-187 2139.34,-187 2139.34,-151 2222.66,-151 2222.66,-187"/>
<text text-anchor="middle" x="2181" y="-164.8" font-family="Times,serif" font-size="14.00">AppModule</text>
</g>
<!-- ActionBarComponent&#45;&gt;AppModule -->
<g id="edge1" class="edge">
<title>ActionBarComponent&#45;&gt;AppModule</title>
<path fill="none" stroke="black" d="M4034,-122.01C4034,-144.49 4034,-180 4034,-180 4034,-180 2232.74,-180 2232.74,-180"/>
<polygon fill="black" stroke="black" points="2232.74,-176.5 2222.74,-180 2232.74,-183.5 2232.74,-176.5"/>
</g>
<!-- AddApplicantComponent -->
<g id="node2" class="node">
<title>AddApplicantComponent</title>
<polygon fill="#ffffb3" stroke="black" points="3946.15,-122 3785.85,-122 3785.85,-86 3946.15,-86 3946.15,-122"/>
<text text-anchor="middle" x="3866" y="-99.8" font-family="Times,serif" font-size="14.00">AddApplicantComponent</text>
</g>
<!-- AddApplicantComponent&#45;&gt;AppModule -->
<g id="edge2" class="edge">
<title>AddApplicantComponent&#45;&gt;AppModule</title>
<path fill="none" stroke="black" d="M3866,-122.29C3866,-144.21 3866,-178 3866,-178 3866,-178 2233.07,-178 2233.07,-178"/>
<polygon fill="black" stroke="black" points="2233.07,-174.5 2223.07,-178 2233.07,-181.5 2233.07,-174.5"/>
</g>
<!-- AppComponent -->
<g id="node3" class="node">
<title>AppComponent</title>
<polygon fill="#ffffb3" stroke="black" points="3767.94,-122 3662.06,-122 3662.06,-86 3767.94,-86 3767.94,-122"/>
<text text-anchor="middle" x="3715" y="-99.8" font-family="Times,serif" font-size="14.00">AppComponent</text>
</g>
<!-- AppComponent&#45;&gt;AppModule -->
<g id="edge3" class="edge">
<title>AppComponent&#45;&gt;AppModule</title>
<path fill="none" stroke="black" d="M3715,-122.28C3715,-143.32 3715,-175 3715,-175 3715,-175 2232.83,-175 2232.83,-175"/>
<polygon fill="black" stroke="black" points="2232.83,-171.5 2222.83,-175 2232.83,-178.5 2232.83,-171.5"/>
</g>
<!-- ApplicantDetailsComponent -->
<g id="node4" class="node">
<title>ApplicantDetailsComponent</title>
<polygon fill="#ffffb3" stroke="black" points="3644.19,-122 3467.81,-122 3467.81,-86 3644.19,-86 3644.19,-122"/>
<text text-anchor="middle" x="3556" y="-99.8" font-family="Times,serif" font-size="14.00">ApplicantDetailsComponent</text>
</g>
<!-- ApplicantDetailsComponent&#45;&gt;AppModule -->
<g id="edge4" class="edge">
<title>ApplicantDetailsComponent&#45;&gt;AppModule</title>
<path fill="none" stroke="black" d="M3556,-122.13C3556,-142.57 3556,-173 3556,-173 3556,-173 2232.9,-173 2232.9,-173"/>
<polygon fill="black" stroke="black" points="2232.9,-169.5 2222.9,-173 2232.9,-176.5 2232.9,-169.5"/>
</g>
<!-- AuditComponent -->
<g id="node5" class="node">
<title>AuditComponent</title>
<polygon fill="#ffffb3" stroke="black" points="3449.72,-122 3336.28,-122 3336.28,-86 3449.72,-86 3449.72,-122"/>
<text text-anchor="middle" x="3393" y="-99.8" font-family="Times,serif" font-size="14.00">AuditComponent</text>
</g>
<!-- AuditComponent&#45;&gt;AppModule -->
<g id="edge5" class="edge">
<title>AuditComponent&#45;&gt;AppModule</title>
<path fill="none" stroke="black" d="M3393,-122.31C3393,-142.15 3393,-171 3393,-171 3393,-171 2232.72,-171 2232.72,-171"/>
<polygon fill="black" stroke="black" points="2232.72,-167.5 2222.72,-171 2232.72,-174.5 2232.72,-167.5"/>
</g>
<!-- Dashboard2Component -->
<g id="node6" class="node">
<title>Dashboard2Component</title>
<polygon fill="#ffffb3" stroke="black" points="3318.47,-122 3169.53,-122 3169.53,-86 3318.47,-86 3318.47,-122"/>
<text text-anchor="middle" x="3244" y="-99.8" font-family="Times,serif" font-size="14.00">Dashboard2Component</text>
</g>
<!-- Dashboard2Component&#45;&gt;AppModule -->
<g id="edge6" class="edge">
<title>Dashboard2Component&#45;&gt;AppModule</title>
<path fill="none" stroke="black" d="M3244,-122.17C3244,-141.09 3244,-168 3244,-168 3244,-168 2232.67,-168 2232.67,-168"/>
<polygon fill="black" stroke="black" points="2232.67,-164.5 2222.67,-168 2232.67,-171.5 2232.67,-164.5"/>
</g>
<!-- DashboardComponent -->
<g id="node7" class="node">
<title>DashboardComponent</title>
<polygon fill="#ffffb3" stroke="black" points="3151.97,-122 3010.03,-122 3010.03,-86 3151.97,-86 3151.97,-122"/>
<text text-anchor="middle" x="3081" y="-99.8" font-family="Times,serif" font-size="14.00">DashboardComponent</text>
</g>
<!-- DashboardComponent&#45;&gt;AppModule -->
<g id="edge7" class="edge">
<title>DashboardComponent&#45;&gt;AppModule</title>
<path fill="none" stroke="black" d="M3081,-122.27C3081,-140.56 3081,-166 3081,-166 3081,-166 2232.9,-166 2232.9,-166"/>
<polygon fill="black" stroke="black" points="2232.9,-162.5 2222.9,-166 2232.9,-169.5 2232.9,-162.5"/>
</g>
<!-- DialogboxComponent -->
<g id="node8" class="node">
<title>DialogboxComponent</title>
<polygon fill="#ffffb3" stroke="black" points="2992.44,-122 2851.56,-122 2851.56,-86 2992.44,-86 2992.44,-122"/>
<text text-anchor="middle" x="2922" y="-99.8" font-family="Times,serif" font-size="14.00">DialogboxComponent</text>
</g>
<!-- DialogboxComponent&#45;&gt;AppModule -->
<g id="edge8" class="edge">
<title>DialogboxComponent&#45;&gt;AppModule</title>
<path fill="none" stroke="black" d="M2922,-122.02C2922,-139.37 2922,-163 2922,-163 2922,-163 2232.69,-163 2232.69,-163"/>
<polygon fill="black" stroke="black" points="2232.69,-159.5 2222.69,-163 2232.69,-166.5 2232.69,-159.5"/>
</g>
<!-- DndDirective -->
<g id="node9" class="node">
<title>DndDirective</title>
<polygon fill="#ffffb3" stroke="black" points="2834.19,-122 2741.81,-122 2741.81,-86 2834.19,-86 2834.19,-122"/>
<text text-anchor="middle" x="2788" y="-99.8" font-family="Times,serif" font-size="14.00">DndDirective</text>
</g>
<!-- DndDirective&#45;&gt;AppModule -->
<g id="edge9" class="edge">
<title>DndDirective&#45;&gt;AppModule</title>
<path fill="none" stroke="black" d="M2788,-122.04C2788,-138.73 2788,-161 2788,-161 2788,-161 2232.72,-161 2232.72,-161"/>
<polygon fill="black" stroke="black" points="2232.72,-157.5 2222.72,-161 2232.72,-164.5 2232.72,-157.5"/>
</g>
<!-- DownloadComponent -->
<g id="node10" class="node">
<title>DownloadComponent</title>
<polygon fill="#ffffb3" stroke="black" points="2723.65,-122 2584.35,-122 2584.35,-86 2723.65,-86 2723.65,-122"/>
<text text-anchor="middle" x="2654" y="-99.8" font-family="Times,serif" font-size="14.00">DownloadComponent</text>
</g>
<!-- DownloadComponent&#45;&gt;AppModule -->
<g id="edge10" class="edge">
<title>DownloadComponent&#45;&gt;AppModule</title>
<path fill="none" stroke="black" d="M2654,-122.01C2654,-138.05 2654,-159 2654,-159 2654,-159 2232.98,-159 2232.98,-159"/>
<polygon fill="black" stroke="black" points="2232.98,-155.5 2222.98,-159 2232.98,-162.5 2232.98,-155.5"/>
</g>
<!-- FooterComponent -->
<g id="node11" class="node">
<title>FooterComponent</title>
<polygon fill="#ffffb3" stroke="black" points="2565.88,-122 2448.12,-122 2448.12,-86 2565.88,-86 2565.88,-122"/>
<text text-anchor="middle" x="2507" y="-99.8" font-family="Times,serif" font-size="14.00">FooterComponent</text>
</g>
<!-- FooterComponent&#45;&gt;AppModule -->
<g id="edge11" class="edge">
<title>FooterComponent&#45;&gt;AppModule</title>
<path fill="none" stroke="black" d="M2507,-122.19C2507,-137.18 2507,-156 2507,-156 2507,-156 2232.95,-156 2232.95,-156"/>
<polygon fill="black" stroke="black" points="2232.95,-152.5 2222.95,-156 2232.95,-159.5 2232.95,-152.5"/>
</g>
<!-- ForgotPasswordComponent -->
<g id="node12" class="node">
<title>ForgotPasswordComponent</title>
<polygon fill="#ffffb3" stroke="black" points="2430.32,-122 2257.68,-122 2257.68,-86 2430.32,-86 2430.32,-122"/>
<text text-anchor="middle" x="2344" y="-99.8" font-family="Times,serif" font-size="14.00">ForgotPasswordComponent</text>
</g>
<!-- ForgotPasswordComponent&#45;&gt;AppModule -->
<g id="edge12" class="edge">
<title>ForgotPasswordComponent&#45;&gt;AppModule</title>
<path fill="none" stroke="black" d="M2344,-122.05C2344,-136.37 2344,-154 2344,-154 2344,-154 2232.98,-154 2232.98,-154"/>
<polygon fill="black" stroke="black" points="2232.98,-150.5 2222.98,-154 2232.98,-157.5 2232.98,-150.5"/>
</g>
<!-- GroupComponent -->
<g id="node13" class="node">
<title>GroupComponent</title>
<polygon fill="#ffffb3" stroke="black" points="2239.6,-122 2122.4,-122 2122.4,-86 2239.6,-86 2239.6,-122"/>
<text text-anchor="middle" x="2181" y="-99.8" font-family="Times,serif" font-size="14.00">GroupComponent</text>
</g>
<!-- GroupComponent&#45;&gt;AppModule -->
<g id="edge13" class="edge">
<title>GroupComponent&#45;&gt;AppModule</title>
<path fill="none" stroke="black" d="M2181,-122.11C2181,-122.11 2181,-140.99 2181,-140.99"/>
<polygon fill="black" stroke="black" points="2177.5,-140.99 2181,-150.99 2184.5,-140.99 2177.5,-140.99"/>
</g>
<!-- HeaderComponent -->
<g id="node14" class="node">
<title>HeaderComponent</title>
<polygon fill="#ffffb3" stroke="black" points="2104.74,-122 1983.26,-122 1983.26,-86 2104.74,-86 2104.74,-122"/>
<text text-anchor="middle" x="2044" y="-99.8" font-family="Times,serif" font-size="14.00">HeaderComponent</text>
</g>
<!-- HeaderComponent&#45;&gt;AppModule -->
<g id="edge14" class="edge">
<title>HeaderComponent&#45;&gt;AppModule</title>
<path fill="none" stroke="black" d="M2044,-122.05C2044,-136.37 2044,-154 2044,-154 2044,-154 2129.15,-154 2129.15,-154"/>
<polygon fill="black" stroke="black" points="2129.15,-157.5 2139.15,-154 2129.15,-150.5 2129.15,-157.5"/>
</g>
<!-- HomeComponent -->
<g id="node15" class="node">
<title>HomeComponent</title>
<polygon fill="#ffffb3" stroke="black" points="1964.55,-122 1849.45,-122 1849.45,-86 1964.55,-86 1964.55,-122"/>
<text text-anchor="middle" x="1907" y="-99.8" font-family="Times,serif" font-size="14.00">HomeComponent</text>
</g>
<!-- HomeComponent&#45;&gt;AppModule -->
<g id="edge15" class="edge">
<title>HomeComponent&#45;&gt;AppModule</title>
<path fill="none" stroke="black" d="M1907,-122.19C1907,-137.18 1907,-156 1907,-156 1907,-156 2129.09,-156 2129.09,-156"/>
<polygon fill="black" stroke="black" points="2129.09,-159.5 2139.09,-156 2129.09,-152.5 2129.09,-159.5"/>
</g>
<!-- LoginComponent -->
<g id="node16" class="node">
<title>LoginComponent</title>
<polygon fill="#ffffb3" stroke="black" points="1831.28,-122 1716.72,-122 1716.72,-86 1831.28,-86 1831.28,-122"/>
<text text-anchor="middle" x="1774" y="-99.8" font-family="Times,serif" font-size="14.00">LoginComponent</text>
</g>
<!-- LoginComponent&#45;&gt;AppModule -->
<g id="edge16" class="edge">
<title>LoginComponent&#45;&gt;AppModule</title>
<path fill="none" stroke="black" d="M1774,-122.01C1774,-138.05 1774,-159 1774,-159 1774,-159 2128.98,-159 2128.98,-159"/>
<polygon fill="black" stroke="black" points="2128.98,-162.5 2138.98,-159 2128.98,-155.5 2128.98,-162.5"/>
</g>
<!-- MenuComponent -->
<g id="node17" class="node">
<title>MenuComponent</title>
<polygon fill="#ffffb3" stroke="black" points="1698.99,-122 1585.01,-122 1585.01,-86 1698.99,-86 1698.99,-122"/>
<text text-anchor="middle" x="1642" y="-99.8" font-family="Times,serif" font-size="14.00">MenuComponent</text>
</g>
<!-- MenuComponent&#45;&gt;AppModule -->
<g id="edge17" class="edge">
<title>MenuComponent&#45;&gt;AppModule</title>
<path fill="none" stroke="black" d="M1642,-122.04C1642,-138.73 1642,-161 1642,-161 1642,-161 2129.15,-161 2129.15,-161"/>
<polygon fill="black" stroke="black" points="2129.15,-164.5 2139.15,-161 2129.15,-157.5 2129.15,-164.5"/>
</g>
<!-- ProgressComponent -->
<g id="node18" class="node">
<title>ProgressComponent</title>
<polygon fill="#ffffb3" stroke="black" points="1566.54,-122 1437.46,-122 1437.46,-86 1566.54,-86 1566.54,-122"/>
<text text-anchor="middle" x="1502" y="-99.8" font-family="Times,serif" font-size="14.00">ProgressComponent</text>
</g>
<!-- ProgressComponent&#45;&gt;AppModule -->
<g id="edge18" class="edge">
<title>ProgressComponent&#45;&gt;AppModule</title>
<path fill="none" stroke="black" d="M1502,-122.02C1502,-139.37 1502,-163 1502,-163 1502,-163 2129.29,-163 2129.29,-163"/>
<polygon fill="black" stroke="black" points="2129.29,-166.5 2139.29,-163 2129.29,-159.5 2129.29,-166.5"/>
</g>
<!-- RuleBuilderComponent -->
<g id="node19" class="node">
<title>RuleBuilderComponent</title>
<polygon fill="#ffffb3" stroke="black" points="1418.77,-122 1269.23,-122 1269.23,-86 1418.77,-86 1418.77,-122"/>
<text text-anchor="middle" x="1344" y="-99.8" font-family="Times,serif" font-size="14.00">RuleBuilderComponent</text>
</g>
<!-- RuleBuilderComponent&#45;&gt;AppModule -->
<g id="edge19" class="edge">
<title>RuleBuilderComponent&#45;&gt;AppModule</title>
<path fill="none" stroke="black" d="M1344,-122.27C1344,-140.56 1344,-166 1344,-166 1344,-166 2129.21,-166 2129.21,-166"/>
<polygon fill="black" stroke="black" points="2129.21,-169.5 2139.21,-166 2129.21,-162.5 2129.21,-169.5"/>
</g>
<!-- RuleContainerComponent -->
<g id="node20" class="node">
<title>RuleContainerComponent</title>
<polygon fill="#ffffb3" stroke="black" points="1251.48,-122 1088.52,-122 1088.52,-86 1251.48,-86 1251.48,-122"/>
<text text-anchor="middle" x="1170" y="-99.8" font-family="Times,serif" font-size="14.00">RuleContainerComponent</text>
</g>
<!-- RuleContainerComponent&#45;&gt;AppModule -->
<g id="edge20" class="edge">
<title>RuleContainerComponent&#45;&gt;AppModule</title>
<path fill="none" stroke="black" d="M1170,-122.17C1170,-141.09 1170,-168 1170,-168 1170,-168 2129.16,-168 2129.16,-168"/>
<polygon fill="black" stroke="black" points="2129.16,-171.5 2139.16,-168 2129.16,-164.5 2129.16,-171.5"/>
</g>
<!-- ShoppingBasketComponent -->
<g id="node21" class="node">
<title>ShoppingBasketComponent</title>
<polygon fill="#ffffb3" stroke="black" points="1070.61,-122 897.39,-122 897.39,-86 1070.61,-86 1070.61,-122"/>
<text text-anchor="middle" x="984" y="-99.8" font-family="Times,serif" font-size="14.00">ShoppingBasketComponent</text>
</g>
<!-- ShoppingBasketComponent&#45;&gt;AppModule -->
<g id="edge21" class="edge">
<title>ShoppingBasketComponent&#45;&gt;AppModule</title>
<path fill="none" stroke="black" d="M984,-122.31C984,-142.15 984,-171 984,-171 984,-171 2129.1,-171 2129.1,-171"/>
<polygon fill="black" stroke="black" points="2129.1,-174.5 2139.1,-171 2129.1,-167.5 2129.1,-174.5"/>
</g>
<!-- ShoppinglistComponent -->
<g id="node22" class="node">
<title>ShoppinglistComponent</title>
<polygon fill="#ffffb3" stroke="black" points="879.12,-122 726.88,-122 726.88,-86 879.12,-86 879.12,-122"/>
<text text-anchor="middle" x="803" y="-99.8" font-family="Times,serif" font-size="14.00">ShoppinglistComponent</text>
</g>
<!-- ShoppinglistComponent&#45;&gt;AppModule -->
<g id="edge22" class="edge">
<title>ShoppinglistComponent&#45;&gt;AppModule</title>
<path fill="none" stroke="black" d="M803,-122.13C803,-142.57 803,-173 803,-173 803,-173 2129.01,-173 2129.01,-173"/>
<polygon fill="black" stroke="black" points="2129.01,-176.5 2139.01,-173 2129.01,-169.5 2129.01,-176.5"/>
</g>
<!-- SignupComponent -->
<g id="node23" class="node">
<title>SignupComponent</title>
<polygon fill="#ffffb3" stroke="black" points="708.51,-122 587.49,-122 587.49,-86 708.51,-86 708.51,-122"/>
<text text-anchor="middle" x="648" y="-99.8" font-family="Times,serif" font-size="14.00">SignupComponent</text>
</g>
<!-- SignupComponent&#45;&gt;AppModule -->
<g id="edge23" class="edge">
<title>SignupComponent&#45;&gt;AppModule</title>
<path fill="none" stroke="black" d="M648,-122.28C648,-143.32 648,-175 648,-175 648,-175 2129.2,-175 2129.2,-175"/>
<polygon fill="black" stroke="black" points="2129.2,-178.5 2139.2,-175 2129.2,-171.5 2129.2,-178.5"/>
</g>
<!-- TabsComponent -->
<g id="node24" class="node">
<title>TabsComponent</title>
<polygon fill="#ffffb3" stroke="black" points="569.05,-122 460.95,-122 460.95,-86 569.05,-86 569.05,-122"/>
<text text-anchor="middle" x="515" y="-99.8" font-family="Times,serif" font-size="14.00">TabsComponent</text>
</g>
<!-- TabsComponent&#45;&gt;AppModule -->
<g id="edge24" class="edge">
<title>TabsComponent&#45;&gt;AppModule</title>
<path fill="none" stroke="black" d="M515,-122.29C515,-144.21 515,-178 515,-178 515,-178 2128.98,-178 2128.98,-178"/>
<polygon fill="black" stroke="black" points="2128.98,-181.5 2138.98,-178 2128.98,-174.5 2128.98,-181.5"/>
</g>
<!-- UploadComponent -->
<g id="node25" class="node">
<title>UploadComponent</title>
<polygon fill="#ffffb3" stroke="black" points="442.05,-122 319.95,-122 319.95,-86 442.05,-86 442.05,-122"/>
<text text-anchor="middle" x="381" y="-99.8" font-family="Times,serif" font-size="14.00">UploadComponent</text>
</g>
<!-- UploadComponent&#45;&gt;AppModule -->
<g id="edge25" class="edge">
<title>UploadComponent&#45;&gt;AppModule</title>
<path fill="none" stroke="black" d="M381,-122.01C381,-144.49 381,-180 381,-180 381,-180 2129.16,-180 2129.16,-180"/>
<polygon fill="black" stroke="black" points="2129.16,-183.5 2139.16,-180 2129.16,-176.5 2129.16,-183.5"/>
</g>
<!-- UserformComponent -->
<g id="node26" class="node">
<title>UserformComponent</title>
<polygon fill="#ffffb3" stroke="black" points="301.47,-122 166.53,-122 166.53,-86 301.47,-86 301.47,-122"/>
<text text-anchor="middle" x="234" y="-99.8" font-family="Times,serif" font-size="14.00">UserformComponent</text>
</g>
<!-- UserformComponent&#45;&gt;AppModule -->
<g id="edge26" class="edge">
<title>UserformComponent&#45;&gt;AppModule</title>
<path fill="none" stroke="black" d="M234,-122.32C234,-145.66 234,-183 234,-183 234,-183 2128.98,-183 2128.98,-183"/>
<polygon fill="black" stroke="black" points="2128.98,-186.5 2138.98,-183 2128.98,-179.5 2128.98,-186.5"/>
</g>
<!-- UserlistComponent -->
<g id="node27" class="node">
<title>UserlistComponent</title>
<polygon fill="#ffffb3" stroke="black" points="148.38,-122 23.62,-122 23.62,-86 148.38,-86 148.38,-122"/>
<text text-anchor="middle" x="86" y="-99.8" font-family="Times,serif" font-size="14.00">UserlistComponent</text>
</g>
<!-- UserlistComponent&#45;&gt;AppModule -->
<g id="edge27" class="edge">
<title>UserlistComponent&#45;&gt;AppModule</title>
<path fill="none" stroke="black" d="M86,-122.38C86,-146.28 86,-185 86,-185 86,-185 2129.15,-185 2129.15,-185"/>
<polygon fill="black" stroke="black" points="2129.15,-188.5 2139.15,-185 2129.15,-181.5 2129.15,-188.5"/>
</g>
<!-- AppComponent  -->
<g id="node31" class="node">
<title>AppComponent </title>
<polygon fill="#80b1d3" stroke="black" points="2235.44,-252 2126.56,-252 2126.56,-216 2235.44,-216 2235.44,-252"/>
<text text-anchor="middle" x="2181" y="-229.8" font-family="Times,serif" font-size="14.00">AppComponent </text>
</g>
<!-- AppModule&#45;&gt;AppComponent  -->
<g id="edge30" class="edge">
<title>AppModule&#45;&gt;AppComponent </title>
<path fill="none" stroke="black" stroke-dasharray="1,5" d="M2181,-187.11C2181,-187.11 2181,-205.99 2181,-205.99"/>
<polygon fill="black" stroke="black" points="2177.5,-205.99 2181,-215.99 2184.5,-205.99 2177.5,-205.99"/>
</g>
<!-- AppRoutingModule -->
<g id="node29" class="node">
<title>AppRoutingModule</title>
<polygon fill="#8dd3c7" stroke="black" points="4381.27,-122 4378.27,-126 4357.27,-126 4354.27,-122 4252.73,-122 4252.73,-86 4381.27,-86 4381.27,-122"/>
<text text-anchor="middle" x="4317" y="-99.8" font-family="Times,serif" font-size="14.00">AppRoutingModule</text>
</g>
<!-- AppRoutingModule&#45;&gt;AppModule -->
<g id="edge28" class="edge">
<title>AppRoutingModule&#45;&gt;AppModule</title>
<path fill="none" stroke="black" d="M4317,-122.38C4317,-146.28 4317,-185 4317,-185 4317,-185 2232.71,-185 2232.71,-185"/>
<polygon fill="black" stroke="black" points="2232.71,-181.5 2222.71,-185 2232.71,-188.5 2232.71,-181.5"/>
</g>
<!-- MaterialModule -->
<g id="node30" class="node">
<title>MaterialModule</title>
<polygon fill="#8dd3c7" stroke="black" points="4234.47,-122 4231.47,-126 4210.47,-126 4207.47,-122 4127.53,-122 4127.53,-86 4234.47,-86 4234.47,-122"/>
<text text-anchor="middle" x="4181" y="-99.8" font-family="Times,serif" font-size="14.00">MaterialModule</text>
</g>
<!-- MaterialModule&#45;&gt;AppModule -->
<g id="edge29" class="edge">
<title>MaterialModule&#45;&gt;AppModule</title>
<path fill="none" stroke="black" d="M4181,-122.32C4181,-145.66 4181,-183 4181,-183 4181,-183 2232.77,-183 2232.77,-183"/>
<polygon fill="black" stroke="black" points="2232.77,-179.5 2222.77,-183 2232.77,-186.5 2232.77,-179.5"/>
</g>
</g>
</svg>
