<?xml version="1.0" encoding="UTF-8" standalone="no"?>
<!DOCTYPE svg PUBLIC "-//W3C//DTD SVG 1.1//EN"
 "http://www.w3.org/Graphics/SVG/1.1/DTD/svg11.dtd">
<!-- Generated by graphviz version 2.47.0 (20210316.0004)
 -->
<!-- Title: dependencies Pages: 1 -->
<svg width="1369pt" height="284pt"
 viewBox="0.00 0.00 1369.00 284.00" xmlns="http://www.w3.org/2000/svg" xmlns:xlink="http://www.w3.org/1999/xlink">
<g id="graph0" class="graph" transform="scale(1 1) rotate(0) translate(4 280)">
<title>dependencies</title>
<polygon fill="white" stroke="transparent" points="-4,4 -4,-280 1365,-280 1365,4 -4,4"/>
<text text-anchor="start" x="659.51" y="-42.4" font-family="Times-12" font-weight="bold" font-size="14.00">Legend</text>
<polygon fill="#ffffb3" stroke="transparent" points="446.5,-10 446.5,-30 466.5,-30 466.5,-10 446.5,-10"/>
<text text-anchor="start" x="470.13" y="-15.4" font-family="Times-12" font-size="14.00"> &#160;Declarations</text>
<polygon fill="#8dd3c7" stroke="transparent" points="559.5,-10 559.5,-30 579.5,-30 579.5,-10 559.5,-10"/>
<text text-anchor="start" x="583.23" y="-15.4" font-family="Times-12" font-size="14.00"> &#160;Module</text>
<polygon fill="#80b1d3" stroke="transparent" points="645.5,-10 645.5,-30 665.5,-30 665.5,-10 645.5,-10"/>
<text text-anchor="start" x="669.28" y="-15.4" font-family="Times-12" font-size="14.00"> &#160;Bootstrap</text>
<polygon fill="#fdb462" stroke="transparent" points="742.5,-10 742.5,-30 762.5,-30 762.5,-10 742.5,-10"/>
<text text-anchor="start" x="766.17" y="-15.4" font-family="Times-12" font-size="14.00"> &#160;Providers</text>
<polygon fill="#fb8072" stroke="transparent" points="838.5,-10 838.5,-30 858.5,-30 858.5,-10 838.5,-10"/>
<text text-anchor="start" x="862.23" y="-15.4" font-family="Times-12" font-size="14.00"> &#160;Exports</text>
<g id="clust1" class="cluster">
<title>cluster_SharedComponentModule</title>
<polygon fill="none" stroke="black" stroke-dasharray="1,5" points="8,-70 8,-268 1353,-268 1353,-70 8,-70"/>
</g>
<g id="clust2" class="cluster">
<title>cluster_SharedComponentModule_declarations</title>
<polygon fill="none" stroke="black" points="146,-78 146,-130 1345,-130 1345,-78 146,-78"/>
</g>
<g id="clust10" class="cluster">
<title>cluster_SharedComponentModule_imports</title>
<polygon fill="none" stroke="black" points="16,-78 16,-130 138,-130 138,-78 16,-78"/>
</g>
<g id="clust11" class="cluster">
<title>cluster_SharedComponentModule_exports</title>
<polygon fill="none" stroke="black" points="130,-208 130,-260 1154,-260 1154,-208 130,-208"/>
</g>
<!-- BarChartComponent -->
<g id="node1" class="node">
<title>BarChartComponent</title>
<polygon fill="#ffffb3" stroke="black" points="1337.15,-122 1204.85,-122 1204.85,-86 1337.15,-86 1337.15,-122"/>
<text text-anchor="middle" x="1271" y="-99.8" font-family="Times,serif" font-size="14.00">BarChartComponent</text>
</g>
<!-- SharedComponentModule -->
<g id="node8" class="node">
<title>SharedComponentModule</title>
<polygon fill="#8dd3c7" stroke="black" points="693.75,-187 690.75,-191 669.75,-191 666.75,-187 530.25,-187 530.25,-151 693.75,-151 693.75,-187"/>
<text text-anchor="middle" x="612" y="-164.8" font-family="Times,serif" font-size="14.00">SharedComponentModule</text>
</g>
<!-- BarChartComponent&#45;&gt;SharedComponentModule -->
<g id="edge1" class="edge">
<title>BarChartComponent&#45;&gt;SharedComponentModule</title>
<path fill="none" stroke="black" d="M1271,-122.11C1271,-141.34 1271,-169 1271,-169 1271,-169 703.8,-169 703.8,-169"/>
<polygon fill="black" stroke="black" points="703.8,-165.5 693.8,-169 703.8,-172.5 703.8,-165.5"/>
</g>
<!-- CommonCardComponent -->
<g id="node2" class="node">
<title>CommonCardComponent</title>
<polygon fill="#ffffb3" stroke="black" points="1186.16,-122 1025.84,-122 1025.84,-86 1186.16,-86 1186.16,-122"/>
<text text-anchor="middle" x="1106" y="-99.8" font-family="Times,serif" font-size="14.00">CommonCardComponent</text>
</g>
<!-- CommonCardComponent&#45;&gt;SharedComponentModule -->
<g id="edge2" class="edge">
<title>CommonCardComponent&#45;&gt;SharedComponentModule</title>
<path fill="none" stroke="black" d="M1085.87,-122.02C1085.87,-139.37 1085.87,-163 1085.87,-163 1085.87,-163 704,-163 704,-163"/>
<polygon fill="black" stroke="black" points="704,-159.5 694,-163 704,-166.5 704,-159.5"/>
</g>
<!-- CommonPageHeaderComponent -->
<g id="node3" class="node">
<title>CommonPageHeaderComponent</title>
<polygon fill="#ffffb3" stroke="black" points="1007.57,-122 806.43,-122 806.43,-86 1007.57,-86 1007.57,-122"/>
<text text-anchor="middle" x="907" y="-99.8" font-family="Times,serif" font-size="14.00">CommonPageHeaderComponent</text>
</g>
<!-- CommonPageHeaderComponent&#45;&gt;SharedComponentModule -->
<g id="edge3" class="edge">
<title>CommonPageHeaderComponent&#45;&gt;SharedComponentModule</title>
<path fill="none" stroke="black" d="M819.1,-122.24C819.1,-137.57 819.1,-157 819.1,-157 819.1,-157 703.85,-157 703.85,-157"/>
<polygon fill="black" stroke="black" points="703.85,-153.5 693.85,-157 703.85,-160.5 703.85,-153.5"/>
</g>
<!-- CustomSnackbarComponent -->
<g id="node4" class="node">
<title>CustomSnackbarComponent</title>
<polygon fill="#ffffb3" stroke="black" points="788.48,-122 611.52,-122 611.52,-86 788.48,-86 788.48,-122"/>
<text text-anchor="middle" x="700" y="-99.8" font-family="Times,serif" font-size="14.00">CustomSnackbarComponent</text>
</g>
<!-- CustomSnackbarComponent&#45;&gt;SharedComponentModule -->
<g id="edge4" class="edge">
<title>CustomSnackbarComponent&#45;&gt;SharedComponentModule</title>
<path fill="none" stroke="black" d="M652.69,-122.11C652.69,-122.11 652.69,-140.99 652.69,-140.99"/>
<polygon fill="black" stroke="black" points="649.19,-140.99 652.69,-150.99 656.19,-140.99 649.19,-140.99"/>
</g>
<!-- LineChartComponent -->
<g id="node5" class="node">
<title>LineChartComponent</title>
<polygon fill="#ffffb3" stroke="black" points="593.09,-122 454.91,-122 454.91,-86 593.09,-86 593.09,-122"/>
<text text-anchor="middle" x="524" y="-99.8" font-family="Times,serif" font-size="14.00">LineChartComponent</text>
</g>
<!-- LineChartComponent&#45;&gt;SharedComponentModule -->
<g id="edge5" class="edge">
<title>LineChartComponent&#45;&gt;SharedComponentModule</title>
<path fill="none" stroke="black" d="M561.58,-122.11C561.58,-122.11 561.58,-140.99 561.58,-140.99"/>
<polygon fill="black" stroke="black" points="558.08,-140.99 561.58,-150.99 565.08,-140.99 558.08,-140.99"/>
</g>
<!-- PieChartComponent -->
<g id="node6" class="node">
<title>PieChartComponent</title>
<polygon fill="#ffffb3" stroke="black" points="437.32,-122 306.68,-122 306.68,-86 437.32,-86 437.32,-122"/>
<text text-anchor="middle" x="372" y="-99.8" font-family="Times,serif" font-size="14.00">PieChartComponent</text>
</g>
<!-- PieChartComponent&#45;&gt;SharedComponentModule -->
<g id="edge6" class="edge">
<title>PieChartComponent&#45;&gt;SharedComponentModule</title>
<path fill="none" stroke="black" d="M432.54,-122.24C432.54,-137.57 432.54,-157 432.54,-157 432.54,-157 520.15,-157 520.15,-157"/>
<polygon fill="black" stroke="black" points="520.15,-160.5 530.15,-157 520.15,-153.5 520.15,-160.5"/>
</g>
<!-- TableListComponent -->
<g id="node7" class="node">
<title>TableListComponent</title>
<polygon fill="#ffffb3" stroke="black" points="288.48,-122 153.52,-122 153.52,-86 288.48,-86 288.48,-122"/>
<text text-anchor="middle" x="221" y="-99.8" font-family="Times,serif" font-size="14.00">TableListComponent</text>
</g>
<!-- TableListComponent&#45;&gt;SharedComponentModule -->
<g id="edge7" class="edge">
<title>TableListComponent&#45;&gt;SharedComponentModule</title>
<path fill="none" stroke="black" d="M282.37,-122.02C282.37,-139.37 282.37,-163 282.37,-163 282.37,-163 520.09,-163 520.09,-163"/>
<polygon fill="black" stroke="black" points="520.09,-166.5 530.09,-163 520.09,-159.5 520.09,-166.5"/>
</g>
<!-- BarChartComponent  -->
<g id="node10" class="node">
<title>BarChartComponent </title>
<polygon fill="#fb8072" stroke="black" points="1146.15,-252 1009.85,-252 1009.85,-216 1146.15,-216 1146.15,-252"/>
<text text-anchor="middle" x="1078" y="-229.8" font-family="Times,serif" font-size="14.00">BarChartComponent </text>
</g>
<!-- SharedComponentModule&#45;&gt;BarChartComponent  -->
<g id="edge9" class="edge">
<title>SharedComponentModule&#45;&gt;BarChartComponent </title>
<path fill="none" stroke="black" stroke-dasharray="5,2" d="M694.12,-175C812.69,-175 1017.8,-175 1017.8,-175 1017.8,-175 1017.8,-205.98 1017.8,-205.98"/>
<polygon fill="black" stroke="black" points="1014.3,-205.98 1017.8,-215.98 1021.3,-205.98 1014.3,-205.98"/>
</g>
<!-- CommonCardComponent  -->
<g id="node11" class="node">
<title>CommonCardComponent </title>
<polygon fill="#fb8072" stroke="black" points="992.16,-252 827.84,-252 827.84,-216 992.16,-216 992.16,-252"/>
<text text-anchor="middle" x="910" y="-229.8" font-family="Times,serif" font-size="14.00">CommonCardComponent </text>
</g>
<!-- SharedComponentModule&#45;&gt;CommonCardComponent  -->
<g id="edge10" class="edge">
<title>SharedComponentModule&#45;&gt;CommonCardComponent </title>
<path fill="none" stroke="black" stroke-dasharray="5,2" d="M693.82,-181C782.04,-181 910,-181 910,-181 910,-181 910,-205.76 910,-205.76"/>
<polygon fill="black" stroke="black" points="906.5,-205.76 910,-215.76 913.5,-205.76 906.5,-205.76"/>
</g>
<!-- CommonPageHeaderComponent  -->
<g id="node12" class="node">
<title>CommonPageHeaderComponent </title>
<polygon fill="#fb8072" stroke="black" points="810.07,-252 605.93,-252 605.93,-216 810.07,-216 810.07,-252"/>
<text text-anchor="middle" x="708" y="-229.8" font-family="Times,serif" font-size="14.00">CommonPageHeaderComponent </text>
</g>
<!-- SharedComponentModule&#45;&gt;CommonPageHeaderComponent  -->
<g id="edge11" class="edge">
<title>SharedComponentModule&#45;&gt;CommonPageHeaderComponent </title>
<path fill="none" stroke="black" stroke-dasharray="5,2" d="M649.8,-187.11C649.8,-187.11 649.8,-205.99 649.8,-205.99"/>
<polygon fill="black" stroke="black" points="646.3,-205.99 649.8,-215.99 653.3,-205.99 646.3,-205.99"/>
</g>
<!-- LineChartComponent  -->
<g id="node13" class="node">
<title>LineChartComponent </title>
<polygon fill="#fb8072" stroke="black" points="587.59,-252 446.41,-252 446.41,-216 587.59,-216 587.59,-252"/>
<text text-anchor="middle" x="517" y="-229.8" font-family="Times,serif" font-size="14.00">LineChartComponent </text>
</g>
<!-- SharedComponentModule&#45;&gt;LineChartComponent  -->
<g id="edge12" class="edge">
<title>SharedComponentModule&#45;&gt;LineChartComponent </title>
<path fill="none" stroke="black" stroke-dasharray="5,2" d="M558.96,-187.11C558.96,-187.11 558.96,-205.99 558.96,-205.99"/>
<polygon fill="black" stroke="black" points="555.46,-205.99 558.96,-215.99 562.46,-205.99 555.46,-205.99"/>
</g>
<!-- PieChartComponent  -->
<g id="node14" class="node">
<title>PieChartComponent </title>
<polygon fill="#fb8072" stroke="black" points="427.82,-252 294.18,-252 294.18,-216 427.82,-216 427.82,-252"/>
<text text-anchor="middle" x="361" y="-229.8" font-family="Times,serif" font-size="14.00">PieChartComponent </text>
</g>
<!-- SharedComponentModule&#45;&gt;PieChartComponent  -->
<g id="edge13" class="edge">
<title>SharedComponentModule&#45;&gt;PieChartComponent </title>
<path fill="none" stroke="black" stroke-dasharray="5,2" d="M530.2,-181C459.09,-181 367.38,-181 367.38,-181 367.38,-181 367.38,-205.76 367.38,-205.76"/>
<polygon fill="black" stroke="black" points="363.88,-205.76 367.38,-215.76 370.88,-205.76 363.88,-205.76"/>
</g>
<!-- TableListComponent  -->
<g id="node15" class="node">
<title>TableListComponent </title>
<polygon fill="#fb8072" stroke="black" points="276.48,-252 137.52,-252 137.52,-216 276.48,-216 276.48,-252"/>
<text text-anchor="middle" x="207" y="-229.8" font-family="Times,serif" font-size="14.00">TableListComponent </text>
</g>
<!-- SharedComponentModule&#45;&gt;TableListComponent  -->
<g id="edge14" class="edge">
<title>SharedComponentModule&#45;&gt;TableListComponent </title>
<path fill="none" stroke="black" stroke-dasharray="5,2" d="M530.2,-175C413.94,-175 214.88,-175 214.88,-175 214.88,-175 214.88,-205.98 214.88,-205.98"/>
<polygon fill="black" stroke="black" points="211.38,-205.98 214.88,-215.98 218.38,-205.98 211.38,-205.98"/>
</g>
<!-- MaterialModule -->
<g id="node9" class="node">
<title>MaterialModule</title>
<polygon fill="#8dd3c7" stroke="black" points="130.47,-122 127.47,-126 106.47,-126 103.47,-122 23.53,-122 23.53,-86 130.47,-86 130.47,-122"/>
<text text-anchor="middle" x="77" y="-99.8" font-family="Times,serif" font-size="14.00">MaterialModule</text>
</g>
<!-- MaterialModule&#45;&gt;SharedComponentModule -->
<g id="edge8" class="edge">
<title>MaterialModule&#45;&gt;SharedComponentModule</title>
<path fill="none" stroke="black" d="M77,-122.11C77,-141.34 77,-169 77,-169 77,-169 520.16,-169 520.16,-169"/>
<polygon fill="black" stroke="black" points="520.16,-172.5 530.16,-169 520.16,-165.5 520.16,-172.5"/>
</g>
</g>
</svg>
