<?xml version="1.0" encoding="UTF-8" standalone="no"?>
<!DOCTYPE svg PUBLIC "-//W3C//DTD SVG 1.1//EN"
 "http://www.w3.org/Graphics/SVG/1.1/DTD/svg11.dtd">
<!-- Generated by graphviz version 2.47.0 (20210316.0004)
 -->
<!-- Title: dependencies Pages: 1 -->
<svg width="5636pt" height="284pt"
 viewBox="0.00 0.00 5636.00 284.00" xmlns="http://www.w3.org/2000/svg" xmlns:xlink="http://www.w3.org/1999/xlink">
<g id="graph0" class="graph" transform="scale(1 1) rotate(0) translate(4 280)">
<title>dependencies</title>
<polygon fill="white" stroke="transparent" points="-4,4 -4,-280 5632,-280 5632,4 -4,4"/>
<text text-anchor="start" x="2793.01" y="-42.4" font-family="Times-12" font-weight="bold" font-size="14.00">Legend</text>
<polygon fill="#ffffb3" stroke="transparent" points="2580,-10 2580,-30 2600,-30 2600,-10 2580,-10"/>
<text text-anchor="start" x="2603.63" y="-15.4" font-family="Times-12" font-size="14.00"> &#160;Declarations</text>
<polygon fill="#8dd3c7" stroke="transparent" points="2693,-10 2693,-30 2713,-30 2713,-10 2693,-10"/>
<text text-anchor="start" x="2716.73" y="-15.4" font-family="Times-12" font-size="14.00"> &#160;Module</text>
<polygon fill="#80b1d3" stroke="transparent" points="2779,-10 2779,-30 2799,-30 2799,-10 2779,-10"/>
<text text-anchor="start" x="2802.78" y="-15.4" font-family="Times-12" font-size="14.00"> &#160;Bootstrap</text>
<polygon fill="#fdb462" stroke="transparent" points="2876,-10 2876,-30 2896,-30 2896,-10 2876,-10"/>
<text text-anchor="start" x="2899.67" y="-15.4" font-family="Times-12" font-size="14.00"> &#160;Providers</text>
<polygon fill="#fb8072" stroke="transparent" points="2972,-10 2972,-30 2992,-30 2992,-10 2972,-10"/>
<text text-anchor="start" x="2995.73" y="-15.4" font-family="Times-12" font-size="14.00"> &#160;Exports</text>
<g id="clust1" class="cluster">
<title>cluster_AppModule</title>
<polygon fill="none" stroke="black" stroke-dasharray="1,5" points="8,-70 8,-268 4397,-268 4397,-70 8,-70"/>
</g>
<g id="clust2" class="cluster">
<title>cluster_AppModule_declarations</title>
<polygon fill="none" stroke="black" points="16,-78 16,-130 4112,-130 4112,-78 16,-78"/>
</g>
<g id="clust30" class="cluster">
<title>cluster_AppModule_imports</title>
<polygon fill="none" stroke="black" points="4120,-78 4120,-130 4389,-130 4389,-78 4120,-78"/>
</g>
<g id="clust32" class="cluster">
<title>cluster_AppModule_bootstrap</title>
<polygon fill="none" stroke="black" points="2119,-208 2119,-260 2243,-260 2243,-208 2119,-208"/>
</g>
<g id="clust52" class="cluster">
<title>cluster_SharedComponentModule</title>
<polygon fill="none" stroke="black" stroke-dasharray="1,5" points="4405,-70 4405,-268 5620,-268 5620,-70 4405,-70"/>
</g>
<g id="clust53" class="cluster">
<title>cluster_SharedComponentModule_declarations</title>
<polygon fill="none" stroke="black" points="4413,-78 4413,-130 5612,-130 5612,-78 4413,-78"/>
</g>
<g id="clust62" class="cluster">
<title>cluster_SharedComponentModule_exports</title>
<polygon fill="none" stroke="black" points="4496,-208 4496,-260 5520,-260 5520,-208 4496,-208"/>
</g>
<!-- ActionBarComponent -->
<g id="node1" class="node">
<title>ActionBarComponent</title>
<polygon fill="#ffffb3" stroke="black" points="4103.65,-122 3964.35,-122 3964.35,-86 4103.65,-86 4103.65,-122"/>
<text text-anchor="middle" x="4034" y="-99.8" font-family="Times,serif" font-size="14.00">ActionBarComponent</text>
</g>
<!-- AppModule -->
<g id="node28" class="node">
<title>AppModule</title>
<polygon fill="#8dd3c7" stroke="black" points="2222.66,-187 2219.66,-191 2198.66,-191 2195.66,-187 2139.34,-187 2139.34,-151 2222.66,-151 2222.66,-187"/>
<text text-anchor="middle" x="2181" y="-164.8" font-family="Times,serif" font-size="14.00">AppModule</text>
</g>
<!-- ActionBarComponent&#45;&gt;AppModule -->
<g id="edge1" class="edge">
<title>ActionBarComponent&#45;&gt;AppModule</title>
<path fill="none" stroke="black" d="M4034,-122.09C4034,-145.13 4034,-182 4034,-182 4034,-182 2232.74,-182 2232.74,-182"/>
<polygon fill="black" stroke="black" points="2232.74,-178.5 2222.74,-182 2232.74,-185.5 2232.74,-178.5"/>
</g>
<!-- AddApplicantComponent -->
<g id="node2" class="node">
<title>AddApplicantComponent</title>
<polygon fill="#ffffb3" stroke="black" points="3946.15,-122 3785.85,-122 3785.85,-86 3946.15,-86 3946.15,-122"/>
<text text-anchor="middle" x="3866" y="-99.8" font-family="Times,serif" font-size="14.00">AddApplicantComponent</text>
</g>
<!-- AddApplicantComponent&#45;&gt;AppModule -->
<g id="edge2" class="edge">
<title>AddApplicantComponent&#45;&gt;AppModule</title>
<path fill="none" stroke="black" d="M3866,-122.01C3866,-144.49 3866,-180 3866,-180 3866,-180 2233.07,-180 2233.07,-180"/>
<polygon fill="black" stroke="black" points="2233.07,-176.5 2223.07,-180 2233.07,-183.5 2233.07,-176.5"/>
</g>
<!-- AppComponent -->
<g id="node3" class="node">
<title>AppComponent</title>
<polygon fill="#ffffb3" stroke="black" points="3767.94,-122 3662.06,-122 3662.06,-86 3767.94,-86 3767.94,-122"/>
<text text-anchor="middle" x="3715" y="-99.8" font-family="Times,serif" font-size="14.00">AppComponent</text>
</g>
<!-- AppComponent&#45;&gt;AppModule -->
<g id="edge3" class="edge">
<title>AppComponent&#45;&gt;AppModule</title>
<path fill="none" stroke="black" d="M3715,-122.29C3715,-144.21 3715,-178 3715,-178 3715,-178 2232.83,-178 2232.83,-178"/>
<polygon fill="black" stroke="black" points="2232.83,-174.5 2222.83,-178 2232.83,-181.5 2232.83,-174.5"/>
</g>
<!-- ApplicantDetailsComponent -->
<g id="node4" class="node">
<title>ApplicantDetailsComponent</title>
<polygon fill="#ffffb3" stroke="black" points="3644.19,-122 3467.81,-122 3467.81,-86 3644.19,-86 3644.19,-122"/>
<text text-anchor="middle" x="3556" y="-99.8" font-family="Times,serif" font-size="14.00">ApplicantDetailsComponent</text>
</g>
<!-- ApplicantDetailsComponent&#45;&gt;AppModule -->
<g id="edge4" class="edge">
<title>ApplicantDetailsComponent&#45;&gt;AppModule</title>
<path fill="none" stroke="black" d="M3556,-122.04C3556,-143.66 3556,-177 3556,-177 3556,-177 2232.9,-177 2232.9,-177"/>
<polygon fill="black" stroke="black" points="2232.9,-173.5 2222.9,-177 2232.9,-180.5 2232.9,-173.5"/>
</g>
<!-- AuditComponent -->
<g id="node5" class="node">
<title>AuditComponent</title>
<polygon fill="#ffffb3" stroke="black" points="3449.72,-122 3336.28,-122 3336.28,-86 3449.72,-86 3449.72,-122"/>
<text text-anchor="middle" x="3393" y="-99.8" font-family="Times,serif" font-size="14.00">AuditComponent</text>
</g>
<!-- AuditComponent&#45;&gt;AppModule -->
<g id="edge5" class="edge">
<title>AuditComponent&#45;&gt;AppModule</title>
<path fill="none" stroke="black" d="M3393,-122.28C3393,-143.32 3393,-175 3393,-175 3393,-175 2232.72,-175 2232.72,-175"/>
<polygon fill="black" stroke="black" points="2232.72,-171.5 2222.72,-175 2232.72,-178.5 2232.72,-171.5"/>
</g>
<!-- Dashboard2Component -->
<g id="node6" class="node">
<title>Dashboard2Component</title>
<polygon fill="#ffffb3" stroke="black" points="3318.47,-122 3169.53,-122 3169.53,-86 3318.47,-86 3318.47,-122"/>
<text text-anchor="middle" x="3244" y="-99.8" font-family="Times,serif" font-size="14.00">Dashboard2Component</text>
</g>
<!-- Dashboard2Component&#45;&gt;AppModule -->
<g id="edge6" class="edge">
<title>Dashboard2Component&#45;&gt;AppModule</title>
<path fill="none" stroke="black" d="M3244,-122.13C3244,-142.57 3244,-173 3244,-173 3244,-173 2232.67,-173 2232.67,-173"/>
<polygon fill="black" stroke="black" points="2232.67,-169.5 2222.67,-173 2232.67,-176.5 2232.67,-169.5"/>
</g>
<!-- DashboardComponent -->
<g id="node7" class="node">
<title>DashboardComponent</title>
<polygon fill="#ffffb3" stroke="black" points="3151.97,-122 3010.03,-122 3010.03,-86 3151.97,-86 3151.97,-122"/>
<text text-anchor="middle" x="3081" y="-99.8" font-family="Times,serif" font-size="14.00">DashboardComponent</text>
</g>
<!-- DashboardComponent&#45;&gt;AppModule -->
<g id="edge7" class="edge">
<title>DashboardComponent&#45;&gt;AppModule</title>
<path fill="none" stroke="black" d="M3081,-122.31C3081,-142.15 3081,-171 3081,-171 3081,-171 2232.9,-171 2232.9,-171"/>
<polygon fill="black" stroke="black" points="2232.9,-167.5 2222.9,-171 2232.9,-174.5 2232.9,-167.5"/>
</g>
<!-- DialogboxComponent -->
<g id="node8" class="node">
<title>DialogboxComponent</title>
<polygon fill="#ffffb3" stroke="black" points="2992.44,-122 2851.56,-122 2851.56,-86 2992.44,-86 2992.44,-122"/>
<text text-anchor="middle" x="2922" y="-99.8" font-family="Times,serif" font-size="14.00">DialogboxComponent</text>
</g>
<!-- DialogboxComponent&#45;&gt;AppModule -->
<g id="edge8" class="edge">
<title>DialogboxComponent&#45;&gt;AppModule</title>
<path fill="none" stroke="black" d="M2922,-122.11C2922,-141.34 2922,-169 2922,-169 2922,-169 2232.69,-169 2232.69,-169"/>
<polygon fill="black" stroke="black" points="2232.69,-165.5 2222.69,-169 2232.69,-172.5 2232.69,-165.5"/>
</g>
<!-- DndDirective -->
<g id="node9" class="node">
<title>DndDirective</title>
<polygon fill="#ffffb3" stroke="black" points="2834.19,-122 2741.81,-122 2741.81,-86 2834.19,-86 2834.19,-122"/>
<text text-anchor="middle" x="2788" y="-99.8" font-family="Times,serif" font-size="14.00">DndDirective</text>
</g>
<!-- DndDirective&#45;&gt;AppModule -->
<g id="edge9" class="edge">
<title>DndDirective&#45;&gt;AppModule</title>
<path fill="none" stroke="black" d="M2788,-122.17C2788,-141.09 2788,-168 2788,-168 2788,-168 2232.72,-168 2232.72,-168"/>
<polygon fill="black" stroke="black" points="2232.72,-164.5 2222.72,-168 2232.72,-171.5 2232.72,-164.5"/>
</g>
<!-- DownloadComponent -->
<g id="node10" class="node">
<title>DownloadComponent</title>
<polygon fill="#ffffb3" stroke="black" points="2723.65,-122 2584.35,-122 2584.35,-86 2723.65,-86 2723.65,-122"/>
<text text-anchor="middle" x="2654" y="-99.8" font-family="Times,serif" font-size="14.00">DownloadComponent</text>
</g>
<!-- DownloadComponent&#45;&gt;AppModule -->
<g id="edge10" class="edge">
<title>DownloadComponent&#45;&gt;AppModule</title>
<path fill="none" stroke="black" d="M2654,-122.27C2654,-140.56 2654,-166 2654,-166 2654,-166 2232.98,-166 2232.98,-166"/>
<polygon fill="black" stroke="black" points="2232.98,-162.5 2222.98,-166 2232.98,-169.5 2232.98,-162.5"/>
</g>
<!-- FooterComponent -->
<g id="node11" class="node">
<title>FooterComponent</title>
<polygon fill="#ffffb3" stroke="black" points="2565.88,-122 2448.12,-122 2448.12,-86 2565.88,-86 2565.88,-122"/>
<text text-anchor="middle" x="2507" y="-99.8" font-family="Times,serif" font-size="14.00">FooterComponent</text>
</g>
<!-- FooterComponent&#45;&gt;AppModule -->
<g id="edge11" class="edge">
<title>FooterComponent&#45;&gt;AppModule</title>
<path fill="none" stroke="black" d="M2507,-122C2507,-139.68 2507,-164 2507,-164 2507,-164 2232.95,-164 2232.95,-164"/>
<polygon fill="black" stroke="black" points="2232.95,-160.5 2222.95,-164 2232.95,-167.5 2232.95,-160.5"/>
</g>
<!-- ForgotPasswordComponent -->
<g id="node12" class="node">
<title>ForgotPasswordComponent</title>
<polygon fill="#ffffb3" stroke="black" points="2430.32,-122 2257.68,-122 2257.68,-86 2430.32,-86 2430.32,-122"/>
<text text-anchor="middle" x="2344" y="-99.8" font-family="Times,serif" font-size="14.00">ForgotPasswordComponent</text>
</g>
<!-- ForgotPasswordComponent&#45;&gt;AppModule -->
<g id="edge12" class="edge">
<title>ForgotPasswordComponent&#45;&gt;AppModule</title>
<path fill="none" stroke="black" d="M2344,-122.03C2344,-139.06 2344,-162 2344,-162 2344,-162 2232.98,-162 2232.98,-162"/>
<polygon fill="black" stroke="black" points="2232.98,-158.5 2222.98,-162 2232.98,-165.5 2232.98,-158.5"/>
</g>
<!-- GroupComponent -->
<g id="node13" class="node">
<title>GroupComponent</title>
<polygon fill="#ffffb3" stroke="black" points="2239.6,-122 2122.4,-122 2122.4,-86 2239.6,-86 2239.6,-122"/>
<text text-anchor="middle" x="2181" y="-99.8" font-family="Times,serif" font-size="14.00">GroupComponent</text>
</g>
<!-- GroupComponent&#45;&gt;AppModule -->
<g id="edge13" class="edge">
<title>GroupComponent&#45;&gt;AppModule</title>
<path fill="none" stroke="black" d="M2181,-122.11C2181,-122.11 2181,-140.99 2181,-140.99"/>
<polygon fill="black" stroke="black" points="2177.5,-140.99 2181,-150.99 2184.5,-140.99 2177.5,-140.99"/>
</g>
<!-- HeaderComponent -->
<g id="node14" class="node">
<title>HeaderComponent</title>
<polygon fill="#ffffb3" stroke="black" points="2104.74,-122 1983.26,-122 1983.26,-86 2104.74,-86 2104.74,-122"/>
<text text-anchor="middle" x="2044" y="-99.8" font-family="Times,serif" font-size="14.00">HeaderComponent</text>
</g>
<!-- HeaderComponent&#45;&gt;AppModule -->
<g id="edge14" class="edge">
<title>HeaderComponent&#45;&gt;AppModule</title>
<path fill="none" stroke="black" d="M2044,-122.05C2044,-136.37 2044,-154 2044,-154 2044,-154 2129.15,-154 2129.15,-154"/>
<polygon fill="black" stroke="black" points="2129.15,-157.5 2139.15,-154 2129.15,-150.5 2129.15,-157.5"/>
</g>
<!-- HomeComponent -->
<g id="node15" class="node">
<title>HomeComponent</title>
<polygon fill="#ffffb3" stroke="black" points="1964.55,-122 1849.45,-122 1849.45,-86 1964.55,-86 1964.55,-122"/>
<text text-anchor="middle" x="1907" y="-99.8" font-family="Times,serif" font-size="14.00">HomeComponent</text>
</g>
<!-- HomeComponent&#45;&gt;AppModule -->
<g id="edge15" class="edge">
<title>HomeComponent&#45;&gt;AppModule</title>
<path fill="none" stroke="black" d="M1907,-122.19C1907,-137.18 1907,-156 1907,-156 1907,-156 2129.09,-156 2129.09,-156"/>
<polygon fill="black" stroke="black" points="2129.09,-159.5 2139.09,-156 2129.09,-152.5 2129.09,-159.5"/>
</g>
<!-- LoginComponent -->
<g id="node16" class="node">
<title>LoginComponent</title>
<polygon fill="#ffffb3" stroke="black" points="1831.28,-122 1716.72,-122 1716.72,-86 1831.28,-86 1831.28,-122"/>
<text text-anchor="middle" x="1774" y="-99.8" font-family="Times,serif" font-size="14.00">LoginComponent</text>
</g>
<!-- LoginComponent&#45;&gt;AppModule -->
<g id="edge16" class="edge">
<title>LoginComponent&#45;&gt;AppModule</title>
<path fill="none" stroke="black" d="M1774,-122.01C1774,-138.05 1774,-159 1774,-159 1774,-159 2128.98,-159 2128.98,-159"/>
<polygon fill="black" stroke="black" points="2128.98,-162.5 2138.98,-159 2128.98,-155.5 2128.98,-162.5"/>
</g>
<!-- MenuComponent -->
<g id="node17" class="node">
<title>MenuComponent</title>
<polygon fill="#ffffb3" stroke="black" points="1698.99,-122 1585.01,-122 1585.01,-86 1698.99,-86 1698.99,-122"/>
<text text-anchor="middle" x="1642" y="-99.8" font-family="Times,serif" font-size="14.00">MenuComponent</text>
</g>
<!-- MenuComponent&#45;&gt;AppModule -->
<g id="edge17" class="edge">
<title>MenuComponent&#45;&gt;AppModule</title>
<path fill="none" stroke="black" d="M1642,-122.04C1642,-138.73 1642,-161 1642,-161 1642,-161 2129.15,-161 2129.15,-161"/>
<polygon fill="black" stroke="black" points="2129.15,-164.5 2139.15,-161 2129.15,-157.5 2129.15,-164.5"/>
</g>
<!-- ProgressComponent -->
<g id="node18" class="node">
<title>ProgressComponent</title>
<polygon fill="#ffffb3" stroke="black" points="1566.54,-122 1437.46,-122 1437.46,-86 1566.54,-86 1566.54,-122"/>
<text text-anchor="middle" x="1502" y="-99.8" font-family="Times,serif" font-size="14.00">ProgressComponent</text>
</g>
<!-- ProgressComponent&#45;&gt;AppModule -->
<g id="edge18" class="edge">
<title>ProgressComponent&#45;&gt;AppModule</title>
<path fill="none" stroke="black" d="M1502,-122.02C1502,-139.37 1502,-163 1502,-163 1502,-163 2129.29,-163 2129.29,-163"/>
<polygon fill="black" stroke="black" points="2129.29,-166.5 2139.29,-163 2129.29,-159.5 2129.29,-166.5"/>
</g>
<!-- RuleBuilderComponent -->
<g id="node19" class="node">
<title>RuleBuilderComponent</title>
<polygon fill="#ffffb3" stroke="black" points="1418.77,-122 1269.23,-122 1269.23,-86 1418.77,-86 1418.77,-122"/>
<text text-anchor="middle" x="1344" y="-99.8" font-family="Times,serif" font-size="14.00">RuleBuilderComponent</text>
</g>
<!-- RuleBuilderComponent&#45;&gt;AppModule -->
<g id="edge19" class="edge">
<title>RuleBuilderComponent&#45;&gt;AppModule</title>
<path fill="none" stroke="black" d="M1344,-122.27C1344,-140.56 1344,-166 1344,-166 1344,-166 2129.21,-166 2129.21,-166"/>
<polygon fill="black" stroke="black" points="2129.21,-169.5 2139.21,-166 2129.21,-162.5 2129.21,-169.5"/>
</g>
<!-- RuleContainerComponent -->
<g id="node20" class="node">
<title>RuleContainerComponent</title>
<polygon fill="#ffffb3" stroke="black" points="1251.48,-122 1088.52,-122 1088.52,-86 1251.48,-86 1251.48,-122"/>
<text text-anchor="middle" x="1170" y="-99.8" font-family="Times,serif" font-size="14.00">RuleContainerComponent</text>
</g>
<!-- RuleContainerComponent&#45;&gt;AppModule -->
<g id="edge20" class="edge">
<title>RuleContainerComponent&#45;&gt;AppModule</title>
<path fill="none" stroke="black" d="M1170,-122.17C1170,-141.09 1170,-168 1170,-168 1170,-168 2129.16,-168 2129.16,-168"/>
<polygon fill="black" stroke="black" points="2129.16,-171.5 2139.16,-168 2129.16,-164.5 2129.16,-171.5"/>
</g>
<!-- ShoppingBasketComponent -->
<g id="node21" class="node">
<title>ShoppingBasketComponent</title>
<polygon fill="#ffffb3" stroke="black" points="1070.61,-122 897.39,-122 897.39,-86 1070.61,-86 1070.61,-122"/>
<text text-anchor="middle" x="984" y="-99.8" font-family="Times,serif" font-size="14.00">ShoppingBasketComponent</text>
</g>
<!-- ShoppingBasketComponent&#45;&gt;AppModule -->
<g id="edge21" class="edge">
<title>ShoppingBasketComponent&#45;&gt;AppModule</title>
<path fill="none" stroke="black" d="M984,-122.31C984,-142.15 984,-171 984,-171 984,-171 2129.1,-171 2129.1,-171"/>
<polygon fill="black" stroke="black" points="2129.1,-174.5 2139.1,-171 2129.1,-167.5 2129.1,-174.5"/>
</g>
<!-- ShoppinglistComponent -->
<g id="node22" class="node">
<title>ShoppinglistComponent</title>
<polygon fill="#ffffb3" stroke="black" points="879.12,-122 726.88,-122 726.88,-86 879.12,-86 879.12,-122"/>
<text text-anchor="middle" x="803" y="-99.8" font-family="Times,serif" font-size="14.00">ShoppinglistComponent</text>
</g>
<!-- ShoppinglistComponent&#45;&gt;AppModule -->
<g id="edge22" class="edge">
<title>ShoppinglistComponent&#45;&gt;AppModule</title>
<path fill="none" stroke="black" d="M803,-122.13C803,-142.57 803,-173 803,-173 803,-173 2129.01,-173 2129.01,-173"/>
<polygon fill="black" stroke="black" points="2129.01,-176.5 2139.01,-173 2129.01,-169.5 2129.01,-176.5"/>
</g>
<!-- SignupComponent -->
<g id="node23" class="node">
<title>SignupComponent</title>
<polygon fill="#ffffb3" stroke="black" points="708.51,-122 587.49,-122 587.49,-86 708.51,-86 708.51,-122"/>
<text text-anchor="middle" x="648" y="-99.8" font-family="Times,serif" font-size="14.00">SignupComponent</text>
</g>
<!-- SignupComponent&#45;&gt;AppModule -->
<g id="edge23" class="edge">
<title>SignupComponent&#45;&gt;AppModule</title>
<path fill="none" stroke="black" d="M648,-122.28C648,-143.32 648,-175 648,-175 648,-175 2129.2,-175 2129.2,-175"/>
<polygon fill="black" stroke="black" points="2129.2,-178.5 2139.2,-175 2129.2,-171.5 2129.2,-178.5"/>
</g>
<!-- TabsComponent -->
<g id="node24" class="node">
<title>TabsComponent</title>
<polygon fill="#ffffb3" stroke="black" points="569.05,-122 460.95,-122 460.95,-86 569.05,-86 569.05,-122"/>
<text text-anchor="middle" x="515" y="-99.8" font-family="Times,serif" font-size="14.00">TabsComponent</text>
</g>
<!-- TabsComponent&#45;&gt;AppModule -->
<g id="edge24" class="edge">
<title>TabsComponent&#45;&gt;AppModule</title>
<path fill="none" stroke="black" d="M515,-122.29C515,-144.21 515,-178 515,-178 515,-178 2128.98,-178 2128.98,-178"/>
<polygon fill="black" stroke="black" points="2128.98,-181.5 2138.98,-178 2128.98,-174.5 2128.98,-181.5"/>
</g>
<!-- UploadComponent -->
<g id="node25" class="node">
<title>UploadComponent</title>
<polygon fill="#ffffb3" stroke="black" points="442.05,-122 319.95,-122 319.95,-86 442.05,-86 442.05,-122"/>
<text text-anchor="middle" x="381" y="-99.8" font-family="Times,serif" font-size="14.00">UploadComponent</text>
</g>
<!-- UploadComponent&#45;&gt;AppModule -->
<g id="edge25" class="edge">
<title>UploadComponent&#45;&gt;AppModule</title>
<path fill="none" stroke="black" d="M381,-122.01C381,-144.49 381,-180 381,-180 381,-180 2129.16,-180 2129.16,-180"/>
<polygon fill="black" stroke="black" points="2129.16,-183.5 2139.16,-180 2129.16,-176.5 2129.16,-183.5"/>
</g>
<!-- UserformComponent -->
<g id="node26" class="node">
<title>UserformComponent</title>
<polygon fill="#ffffb3" stroke="black" points="301.47,-122 166.53,-122 166.53,-86 301.47,-86 301.47,-122"/>
<text text-anchor="middle" x="234" y="-99.8" font-family="Times,serif" font-size="14.00">UserformComponent</text>
</g>
<!-- UserformComponent&#45;&gt;AppModule -->
<g id="edge26" class="edge">
<title>UserformComponent&#45;&gt;AppModule</title>
<path fill="none" stroke="black" d="M234,-122.32C234,-145.66 234,-183 234,-183 234,-183 2128.98,-183 2128.98,-183"/>
<polygon fill="black" stroke="black" points="2128.98,-186.5 2138.98,-183 2128.98,-179.5 2128.98,-186.5"/>
</g>
<!-- UserlistComponent -->
<g id="node27" class="node">
<title>UserlistComponent</title>
<polygon fill="#ffffb3" stroke="black" points="148.38,-122 23.62,-122 23.62,-86 148.38,-86 148.38,-122"/>
<text text-anchor="middle" x="86" y="-99.8" font-family="Times,serif" font-size="14.00">UserlistComponent</text>
</g>
<!-- UserlistComponent&#45;&gt;AppModule -->
<g id="edge27" class="edge">
<title>UserlistComponent&#45;&gt;AppModule</title>
<path fill="none" stroke="black" d="M86,-122.38C86,-146.28 86,-185 86,-185 86,-185 2129.15,-185 2129.15,-185"/>
<polygon fill="black" stroke="black" points="2129.15,-188.5 2139.15,-185 2129.15,-181.5 2129.15,-188.5"/>
</g>
<!-- AppComponent  -->
<g id="node31" class="node">
<title>AppComponent </title>
<polygon fill="#80b1d3" stroke="black" points="2235.44,-252 2126.56,-252 2126.56,-216 2235.44,-216 2235.44,-252"/>
<text text-anchor="middle" x="2181" y="-229.8" font-family="Times,serif" font-size="14.00">AppComponent </text>
</g>
<!-- AppModule&#45;&gt;AppComponent  -->
<g id="edge30" class="edge">
<title>AppModule&#45;&gt;AppComponent </title>
<path fill="none" stroke="black" stroke-dasharray="1,5" d="M2181,-187.11C2181,-187.11 2181,-205.99 2181,-205.99"/>
<polygon fill="black" stroke="black" points="2177.5,-205.99 2181,-215.99 2184.5,-205.99 2177.5,-205.99"/>
</g>
<!-- AppRoutingModule -->
<g id="node29" class="node">
<title>AppRoutingModule</title>
<polygon fill="#8dd3c7" stroke="black" points="4256.27,-122 4253.27,-126 4232.27,-126 4229.27,-122 4127.73,-122 4127.73,-86 4256.27,-86 4256.27,-122"/>
<text text-anchor="middle" x="4192" y="-99.8" font-family="Times,serif" font-size="14.00">AppRoutingModule</text>
</g>
<!-- AppRoutingModule&#45;&gt;AppModule -->
<g id="edge28" class="edge">
<title>AppRoutingModule&#45;&gt;AppModule</title>
<path fill="none" stroke="black" d="M4192,-122.15C4192,-145.76 4192,-184 4192,-184 4192,-184 2233,-184 2233,-184"/>
<polygon fill="black" stroke="black" points="2233,-180.5 2223,-184 2233,-187.5 2233,-180.5"/>
</g>
<!-- MaterialModule -->
<g id="node30" class="node">
<title>MaterialModule</title>
<polygon fill="#8dd3c7" stroke="black" points="4381.47,-122 4378.47,-126 4357.47,-126 4354.47,-122 4274.53,-122 4274.53,-86 4381.47,-86 4381.47,-122"/>
<text text-anchor="middle" x="4328" y="-99.8" font-family="Times,serif" font-size="14.00">MaterialModule</text>
</g>
<!-- MaterialModule&#45;&gt;AppModule -->
<g id="edge29" class="edge">
<title>MaterialModule&#45;&gt;AppModule</title>
<path fill="none" stroke="black" d="M4310.17,-122.2C4310.17,-146.36 4310.17,-186 4310.17,-186 4310.17,-186 2233.05,-186 2233.05,-186"/>
<polygon fill="black" stroke="black" points="2233.05,-182.5 2223.05,-186 2233.05,-189.5 2233.05,-182.5"/>
</g>
<!-- SharedComponentModule -->
<g id="node39" class="node">
<title>SharedComponentModule</title>
<polygon fill="#8dd3c7" stroke="black" points="5006.75,-187 5003.75,-191 4982.75,-191 4979.75,-187 4843.25,-187 4843.25,-151 5006.75,-151 5006.75,-187"/>
<text text-anchor="middle" x="4925" y="-164.8" font-family="Times,serif" font-size="14.00">SharedComponentModule</text>
</g>
<!-- MaterialModule&#45;&gt;SharedComponentModule -->
<g id="edge38" class="edge">
<title>MaterialModule&#45;&gt;SharedComponentModule</title>
<path fill="none" stroke="black" d="M4345.83,-122.24C4345.83,-137.57 4345.83,-157 4345.83,-157 4345.83,-157 4832.94,-157 4832.94,-157"/>
<polygon fill="black" stroke="black" points="4832.94,-160.5 4842.94,-157 4832.94,-153.5 4832.94,-160.5"/>
</g>
<!-- BarChartComponent -->
<g id="node32" class="node">
<title>BarChartComponent</title>
<polygon fill="#ffffb3" stroke="black" points="5604.15,-122 5471.85,-122 5471.85,-86 5604.15,-86 5604.15,-122"/>
<text text-anchor="middle" x="5538" y="-99.8" font-family="Times,serif" font-size="14.00">BarChartComponent</text>
</g>
<!-- BarChartComponent&#45;&gt;SharedComponentModule -->
<g id="edge31" class="edge">
<title>BarChartComponent&#45;&gt;SharedComponentModule</title>
<path fill="none" stroke="black" d="M5491.88,-122.11C5491.88,-141.34 5491.88,-169 5491.88,-169 5491.88,-169 5016.82,-169 5016.82,-169"/>
<polygon fill="black" stroke="black" points="5016.82,-165.5 5006.82,-169 5016.82,-172.5 5016.82,-165.5"/>
</g>
<!-- CommonCardComponent -->
<g id="node33" class="node">
<title>CommonCardComponent</title>
<polygon fill="#ffffb3" stroke="black" points="5453.16,-122 5292.84,-122 5292.84,-86 5453.16,-86 5453.16,-122"/>
<text text-anchor="middle" x="5373" y="-99.8" font-family="Times,serif" font-size="14.00">CommonCardComponent</text>
</g>
<!-- CommonCardComponent&#45;&gt;SharedComponentModule -->
<g id="edge32" class="edge">
<title>CommonCardComponent&#45;&gt;SharedComponentModule</title>
<path fill="none" stroke="black" d="M5325.38,-122.02C5325.38,-139.37 5325.38,-163 5325.38,-163 5325.38,-163 5016.99,-163 5016.99,-163"/>
<polygon fill="black" stroke="black" points="5016.99,-159.5 5006.99,-163 5016.99,-166.5 5016.99,-159.5"/>
</g>
<!-- CommonPageHeaderComponent -->
<g id="node34" class="node">
<title>CommonPageHeaderComponent</title>
<polygon fill="#ffffb3" stroke="black" points="5274.57,-122 5073.43,-122 5073.43,-86 5274.57,-86 5274.57,-122"/>
<text text-anchor="middle" x="5174" y="-99.8" font-family="Times,serif" font-size="14.00">CommonPageHeaderComponent</text>
</g>
<!-- CommonPageHeaderComponent&#45;&gt;SharedComponentModule -->
<g id="edge33" class="edge">
<title>CommonPageHeaderComponent&#45;&gt;SharedComponentModule</title>
<path fill="none" stroke="black" d="M5124.88,-122.24C5124.88,-137.57 5124.88,-157 5124.88,-157 5124.88,-157 5016.87,-157 5016.87,-157"/>
<polygon fill="black" stroke="black" points="5016.87,-153.5 5006.87,-157 5016.87,-160.5 5016.87,-153.5"/>
</g>
<!-- CustomSnackbarComponent -->
<g id="node35" class="node">
<title>CustomSnackbarComponent</title>
<polygon fill="#ffffb3" stroke="black" points="5055.48,-122 4878.52,-122 4878.52,-86 5055.48,-86 5055.48,-122"/>
<text text-anchor="middle" x="4967" y="-99.8" font-family="Times,serif" font-size="14.00">CustomSnackbarComponent</text>
</g>
<!-- CustomSnackbarComponent&#45;&gt;SharedComponentModule -->
<g id="edge34" class="edge">
<title>CustomSnackbarComponent&#45;&gt;SharedComponentModule</title>
<path fill="none" stroke="black" d="M4942.69,-122.11C4942.69,-122.11 4942.69,-140.99 4942.69,-140.99"/>
<polygon fill="black" stroke="black" points="4939.19,-140.99 4942.69,-150.99 4946.19,-140.99 4939.19,-140.99"/>
</g>
<!-- LineChartComponent -->
<g id="node36" class="node">
<title>LineChartComponent</title>
<polygon fill="#ffffb3" stroke="black" points="4860.09,-122 4721.91,-122 4721.91,-86 4860.09,-86 4860.09,-122"/>
<text text-anchor="middle" x="4791" y="-99.8" font-family="Times,serif" font-size="14.00">LineChartComponent</text>
</g>
<!-- LineChartComponent&#45;&gt;SharedComponentModule -->
<g id="edge35" class="edge">
<title>LineChartComponent&#45;&gt;SharedComponentModule</title>
<path fill="none" stroke="black" d="M4851.58,-122.11C4851.58,-122.11 4851.58,-140.99 4851.58,-140.99"/>
<polygon fill="black" stroke="black" points="4848.08,-140.99 4851.58,-150.99 4855.08,-140.99 4848.08,-140.99"/>
</g>
<!-- PieChartComponent -->
<g id="node37" class="node">
<title>PieChartComponent</title>
<polygon fill="#ffffb3" stroke="black" points="4704.32,-122 4573.68,-122 4573.68,-86 4704.32,-86 4704.32,-122"/>
<text text-anchor="middle" x="4639" y="-99.8" font-family="Times,serif" font-size="14.00">PieChartComponent</text>
</g>
<!-- PieChartComponent&#45;&gt;SharedComponentModule -->
<g id="edge36" class="edge">
<title>PieChartComponent&#45;&gt;SharedComponentModule</title>
<path fill="none" stroke="black" d="M4682.12,-122.25C4682.12,-136.18 4682.12,-153 4682.12,-153 4682.12,-153 4833.11,-153 4833.11,-153"/>
<polygon fill="black" stroke="black" points="4833.11,-156.5 4843.11,-153 4833.11,-149.5 4833.11,-156.5"/>
</g>
<!-- TableListComponent -->
<g id="node38" class="node">
<title>TableListComponent</title>
<polygon fill="#ffffb3" stroke="black" points="4555.48,-122 4420.52,-122 4420.52,-86 4555.48,-86 4555.48,-122"/>
<text text-anchor="middle" x="4488" y="-99.8" font-family="Times,serif" font-size="14.00">TableListComponent</text>
</g>
<!-- TableListComponent&#45;&gt;SharedComponentModule -->
<g id="edge37" class="edge">
<title>TableListComponent&#45;&gt;SharedComponentModule</title>
<path fill="none" stroke="black" d="M4529.62,-122.12C4529.62,-136.78 4529.62,-155 4529.62,-155 4529.62,-155 4833.08,-155 4833.08,-155"/>
<polygon fill="black" stroke="black" points="4833.08,-158.5 4843.08,-155 4833.08,-151.5 4833.08,-158.5"/>
</g>
<!-- BarChartComponent  -->
<g id="node40" class="node">
<title>BarChartComponent </title>
<polygon fill="#fb8072" stroke="black" points="5512.15,-252 5375.85,-252 5375.85,-216 5512.15,-216 5512.15,-252"/>
<text text-anchor="middle" x="5444" y="-229.8" font-family="Times,serif" font-size="14.00">BarChartComponent </text>
</g>
<!-- SharedComponentModule&#45;&gt;BarChartComponent  -->
<g id="edge39" class="edge">
<title>SharedComponentModule&#45;&gt;BarChartComponent </title>
<path fill="none" stroke="black" stroke-dasharray="5,2" d="M5006.95,-175C5146.34,-175 5414.63,-175 5414.63,-175 5414.63,-175 5414.63,-205.98 5414.63,-205.98"/>
<polygon fill="black" stroke="black" points="5411.13,-205.98 5414.63,-215.98 5418.13,-205.98 5411.13,-205.98"/>
</g>
<!-- CommonCardComponent  -->
<g id="node41" class="node">
<title>CommonCardComponent </title>
<polygon fill="#fb8072" stroke="black" points="5358.16,-252 5193.84,-252 5193.84,-216 5358.16,-216 5358.16,-252"/>
<text text-anchor="middle" x="5276" y="-229.8" font-family="Times,serif" font-size="14.00">CommonCardComponent </text>
</g>
<!-- SharedComponentModule&#45;&gt;CommonCardComponent  -->
<g id="edge40" class="edge">
<title>SharedComponentModule&#45;&gt;CommonCardComponent </title>
<path fill="none" stroke="black" stroke-dasharray="5,2" d="M5007.06,-181C5098.67,-181 5234.23,-181 5234.23,-181 5234.23,-181 5234.23,-205.76 5234.23,-205.76"/>
<polygon fill="black" stroke="black" points="5230.73,-205.76 5234.23,-215.76 5237.73,-205.76 5230.73,-205.76"/>
</g>
<!-- CommonPageHeaderComponent  -->
<g id="node42" class="node">
<title>CommonPageHeaderComponent </title>
<polygon fill="#fb8072" stroke="black" points="5176.07,-252 4971.93,-252 4971.93,-216 5176.07,-216 5176.07,-252"/>
<text text-anchor="middle" x="5074" y="-229.8" font-family="Times,serif" font-size="14.00">CommonPageHeaderComponent </text>
</g>
<!-- SharedComponentModule&#45;&gt;CommonPageHeaderComponent  -->
<g id="edge41" class="edge">
<title>SharedComponentModule&#45;&gt;CommonPageHeaderComponent </title>
<path fill="none" stroke="black" stroke-dasharray="5,2" d="M4989.3,-187.11C4989.3,-187.11 4989.3,-205.99 4989.3,-205.99"/>
<polygon fill="black" stroke="black" points="4985.8,-205.99 4989.3,-215.99 4992.8,-205.99 4985.8,-205.99"/>
</g>
<!-- LineChartComponent  -->
<g id="node43" class="node">
<title>LineChartComponent </title>
<polygon fill="#fb8072" stroke="black" points="4953.59,-252 4812.41,-252 4812.41,-216 4953.59,-216 4953.59,-252"/>
<text text-anchor="middle" x="4883" y="-229.8" font-family="Times,serif" font-size="14.00">LineChartComponent </text>
</g>
<!-- SharedComponentModule&#45;&gt;LineChartComponent  -->
<g id="edge42" class="edge">
<title>SharedComponentModule&#45;&gt;LineChartComponent </title>
<path fill="none" stroke="black" stroke-dasharray="5,2" d="M4898.46,-187.11C4898.46,-187.11 4898.46,-205.99 4898.46,-205.99"/>
<polygon fill="black" stroke="black" points="4894.96,-205.99 4898.46,-215.99 4901.96,-205.99 4894.96,-205.99"/>
</g>
<!-- PieChartComponent  -->
<g id="node44" class="node">
<title>PieChartComponent </title>
<polygon fill="#fb8072" stroke="black" points="4793.82,-252 4660.18,-252 4660.18,-216 4793.82,-216 4793.82,-252"/>
<text text-anchor="middle" x="4727" y="-229.8" font-family="Times,serif" font-size="14.00">PieChartComponent </text>
</g>
<!-- SharedComponentModule&#45;&gt;PieChartComponent  -->
<g id="edge43" class="edge">
<title>SharedComponentModule&#45;&gt;PieChartComponent </title>
<path fill="none" stroke="black" stroke-dasharray="5,2" d="M4842.93,-160C4800.68,-160 4757.93,-160 4757.93,-160 4757.93,-160 4757.93,-205.71 4757.93,-205.71"/>
<polygon fill="black" stroke="black" points="4754.43,-205.71 4757.93,-215.71 4761.43,-205.71 4754.43,-205.71"/>
</g>
<!-- TableListComponent  -->
<g id="node45" class="node">
<title>TableListComponent </title>
<polygon fill="#fb8072" stroke="black" points="4642.48,-252 4503.52,-252 4503.52,-216 4642.48,-216 4642.48,-252"/>
<text text-anchor="middle" x="4573" y="-229.8" font-family="Times,serif" font-size="14.00">TableListComponent </text>
</g>
<!-- SharedComponentModule&#45;&gt;TableListComponent  -->
<g id="edge44" class="edge">
<title>SharedComponentModule&#45;&gt;TableListComponent </title>
<path fill="none" stroke="black" stroke-dasharray="5,2" d="M4842.96,-159C4749.05,-159 4608.04,-159 4608.04,-159 4608.04,-159 4608.04,-205.84 4608.04,-205.84"/>
<polygon fill="black" stroke="black" points="4604.54,-205.84 4608.04,-215.84 4611.54,-205.84 4604.54,-205.84"/>
</g>
</g>
</svg>
