<svg width="16" height="16" viewBox="0 0 16 16" fill="none" xmlns="http://www.w3.org/2000/svg">
<g clip-path="url(#clip0_3442_3225)">
<path d="M6.70972 7.22587C6.70972 7.93845 7.28746 8.51619 8.00004 8.51619C8.71262 8.51619 9.29036 7.93845 9.29036 7.22587C9.29036 6.51329 8.71262 5.93555 8.00004 5.93555C7.28778 5.93651 6.71068 6.51361 6.70972 7.22587ZM8.77423 7.22587C8.77423 7.65329 8.42746 8.00006 8.00004 8.00006C7.57262 8.00006 7.22585 7.65329 7.22585 7.22587C7.22585 6.79845 7.57262 6.45168 8.00004 6.45168C8.42746 6.45168 8.77423 6.79845 8.77423 7.22587Z" fill="#0D192E"/>
<path d="M15.7419 9.80645C15.8845 9.80645 16 9.69097 16 9.54839V8.51613C16 8.37355 15.8845 8.25806 15.7419 8.25806H11.871V7.55097C12.2739 7.69452 12.7165 7.48452 12.86 7.08161C12.9765 6.75516 12.8616 6.39097 12.579 6.19032L8.45 3.24097C8.39097 3.19935 8.32645 3.16613 8.25806 3.14258V2.06452H10.0645C10.2071 2.06452 10.3226 1.94903 10.3226 1.80645V0.258065C10.3226 0.115484 10.2071 0 10.0645 0H8C7.85742 0 7.74194 0.115484 7.74194 0.258065V3.14258C7.67355 3.16613 7.60903 3.19935 7.55 3.24097L3.42097 6.19032C3.07226 6.43774 2.99032 6.92129 3.23806 7.26968C3.43871 7.55226 3.8029 7.6671 4.12935 7.55065V8.25774H0.258065C0.115484 8.25774 0 8.37323 0 8.51581V9.54806C0 9.69064 0.115484 9.80613 0.258065 9.80613H0.516129V15.4835H0.258065C0.115484 15.4835 0 15.599 0 15.7416C0 15.8842 0.115484 15.9997 0.258065 15.9997H15.7419C15.8845 15.9997 16 15.8842 16 15.7416C16 15.599 15.8845 15.4835 15.7419 15.4835H15.4839V9.80613H15.7419V9.80645ZM8.25806 0.516129H9.80645V1.54839H8.25806V0.516129ZM4.12903 15.4839H1.03226V9.80645H4.12903V15.4839ZM4.12903 9.29032H0.516129V8.77419H4.12903V9.29032ZM4.02097 7.03032C3.90484 7.11323 3.74387 7.08613 3.66097 6.97032C3.62968 6.92645 3.6129 6.87419 3.6129 6.82032C3.6129 6.7371 3.65323 6.65871 3.72097 6.61032L7.85 3.66097C7.93968 3.59677 8.06032 3.59677 8.15 3.66097L12.279 6.61032C12.3468 6.65871 12.3871 6.7371 12.3871 6.82032C12.3871 6.9629 12.2716 7.07839 12.129 7.07839C12.0752 7.07839 12.0229 7.06161 11.979 7.03032L8.15 4.29484C8.06032 4.23065 7.93968 4.23065 7.85 4.29484L4.02097 7.03032ZM7.74194 15.4839H6.70968V12.3871H7.74194V15.4839ZM9.29032 15.4839H8.25806V12.3871H9.29032V15.4839ZM11.3548 15.4839H9.80645V12.129C9.80645 11.9865 9.69097 11.871 9.54839 11.871H6.45161C6.30903 11.871 6.19355 11.9865 6.19355 12.129V15.4839H4.64516V7.21871L8 4.82226L11.3548 7.21871V15.4839ZM14.9677 15.4839H11.871V9.80645H14.9677V15.4839ZM11.871 9.29032V8.77419H15.4839V9.29032H11.871Z" fill="#0D192E"/>
</g>
<defs>
<clipPath id="clip0_3442_3225">
<rect width="16" height="16" fill="white"/>
</clipPath>
</defs>
</svg>
