<svg width="15" height="18" viewBox="0 0 15 18" fill="none" xmlns="http://www.w3.org/2000/svg">
<path d="M9.125 1H2.625C2.19402 1 1.7807 1.1712 1.47595 1.47595C1.1712 1.7807 1 2.19402 1 2.625V15.625C1 16.056 1.1712 16.4693 1.47595 16.774C1.7807 17.0788 2.19402 17.25 2.625 17.25H12.375C12.806 17.25 13.2193 17.0788 13.524 16.774C13.8288 16.4693 14 16.056 14 15.625V5.875L9.125 1Z" stroke="#0D192E" stroke-width="1.5" stroke-linecap="round" stroke-linejoin="round"/>
<path d="M9.125 1V5.875H14" stroke="#0D192E" stroke-width="1.5" stroke-linecap="round" stroke-linejoin="round"/>
<path d="M10.75 9.9375H4.25" stroke="#0D192E" stroke-width="1.5" stroke-linecap="round" stroke-linejoin="round"/>
<path d="M10.75 13.1875H4.25" stroke="#0D192E" stroke-width="1.5" stroke-linecap="round" stroke-linejoin="round"/>
<path d="M5.875 6.6875H5.0625H4.25" stroke="#0D192E" stroke-width="1.5" stroke-linecap="round" stroke-linejoin="round"/>
</svg>
