<svg width="24" height="24" viewBox="0 0 24 24" fill="none" xmlns="http://www.w3.org/2000/svg">
<g clip-path="url(#clip0_62_758)">
<path fill-rule="evenodd" clip-rule="evenodd" d="M21.75 4.5H2.25C2.05109 4.5 1.86032 4.57902 1.71967 4.71967C1.57902 4.86032 1.5 5.05109 1.5 5.25V18.75C1.5 18.9489 1.57902 19.1397 1.71967 19.2803C1.86032 19.421 2.05109 19.5 2.25 19.5H21.75C21.9489 19.5 22.1397 19.421 22.2803 19.2803C22.421 19.1397 22.5 18.9489 22.5 18.75V5.25C22.5 5.05109 22.421 4.86032 22.2803 4.71967C22.1397 4.57902 21.9489 4.5 21.75 4.5ZM2.25 3C1.65326 3 1.08097 3.23705 0.65901 3.65901C0.237053 4.08097 0 4.65326 0 5.25L0 18.75C0 19.3467 0.237053 19.919 0.65901 20.341C1.08097 20.7629 1.65326 21 2.25 21H21.75C22.3467 21 22.919 20.7629 23.341 20.341C23.7629 19.919 24 19.3467 24 18.75V5.25C24 4.65326 23.7629 4.08097 23.341 3.65901C22.919 3.23705 22.3467 3 21.75 3H2.25Z" fill="#4A4A4A"/>
<path fill-rule="evenodd" clip-rule="evenodd" d="M10.5006 8.24988C10.5006 8.05096 10.5796 7.8602 10.7202 7.71955C10.8609 7.57889 11.0516 7.49988 11.2506 7.49988H18.7506C18.9495 7.49988 19.1402 7.57889 19.2809 7.71955C19.4215 7.8602 19.5006 8.05096 19.5006 8.24988C19.5006 8.44879 19.4215 8.63955 19.2809 8.78021C19.1402 8.92086 18.9495 8.99988 18.7506 8.99988H11.2506C11.0516 8.99988 10.8609 8.92086 10.7202 8.78021C10.5796 8.63955 10.5006 8.44879 10.5006 8.24988ZM8.25656 6.96888C8.3264 7.03854 8.38182 7.12131 8.41963 7.21243C8.45743 7.30354 8.4769 7.40122 8.4769 7.49988C8.4769 7.59853 8.45743 7.69621 8.41963 7.78733C8.38182 7.87844 8.3264 7.96121 8.25656 8.03088L6.00656 10.2809C5.93689 10.3507 5.85412 10.4061 5.76301 10.4439C5.67189 10.4818 5.57421 10.5012 5.47556 10.5012C5.37691 10.5012 5.27922 10.4818 5.18811 10.4439C5.09699 10.4061 5.01423 10.3507 4.94456 10.2809L4.19456 9.53088C4.12483 9.46114 4.06951 9.37836 4.03177 9.28725C3.99403 9.19614 3.97461 9.09849 3.97461 8.99988C3.97461 8.80071 4.05373 8.60971 4.19456 8.46888C4.33539 8.32805 4.52639 8.24893 4.72556 8.24893C4.92472 8.24893 5.11573 8.32805 5.25656 8.46888L5.47556 8.68938L7.19456 6.96888C7.26423 6.89903 7.34699 6.84362 7.43811 6.80581C7.52922 6.768 7.62691 6.74854 7.72556 6.74854C7.82421 6.74854 7.92189 6.768 8.01301 6.80581C8.10413 6.84362 8.18689 6.89903 8.25656 6.96888ZM10.5006 14.2499C10.5006 14.051 10.5796 13.8602 10.7202 13.7195C10.8609 13.5789 11.0516 13.4999 11.2506 13.4999H18.7506C18.9495 13.4999 19.1402 13.5789 19.2809 13.7195C19.4215 13.8602 19.5006 14.051 19.5006 14.2499C19.5006 14.4488 19.4215 14.6396 19.2809 14.7802C19.1402 14.9209 18.9495 14.9999 18.7506 14.9999H11.2506C11.0516 14.9999 10.8609 14.9209 10.7202 14.7802C10.5796 14.6396 10.5006 14.4488 10.5006 14.2499ZM8.25656 12.9689C8.3264 13.0385 8.38182 13.1213 8.41963 13.2124C8.45743 13.3035 8.4769 13.4012 8.4769 13.4999C8.4769 13.5985 8.45743 13.6962 8.41963 13.7873C8.38182 13.8784 8.3264 13.9612 8.25656 14.0309L6.00656 16.2809C5.93689 16.3507 5.85412 16.4061 5.76301 16.4439C5.67189 16.4818 5.57421 16.5012 5.47556 16.5012C5.37691 16.5012 5.27922 16.4818 5.18811 16.4439C5.09699 16.4061 5.01423 16.3507 4.94456 16.2809L4.19456 15.5309C4.12483 15.4611 4.06951 15.3784 4.03177 15.2873C3.99403 15.1961 3.97461 15.0985 3.97461 14.9999C3.97461 14.9013 3.99403 14.8036 4.03177 14.7125C4.06951 14.6214 4.12483 14.5386 4.19456 14.4689C4.26429 14.3991 4.34707 14.3438 4.43818 14.3061C4.52929 14.2684 4.62694 14.2489 4.72556 14.2489C4.82417 14.2489 4.92182 14.2684 5.01293 14.3061C5.10404 14.3438 5.18682 14.3991 5.25656 14.4689L5.47556 14.6894L7.19456 12.9689C7.26423 12.899 7.34699 12.8436 7.43811 12.8058C7.52922 12.768 7.62691 12.7485 7.72556 12.7485C7.82421 12.7485 7.92189 12.768 8.01301 12.8058C8.10413 12.8436 8.18689 12.899 8.25656 12.9689Z" fill="#4A4A4A"/>
</g>
<defs>
<clipPath id="clip0_62_758">
<rect width="24" height="24" fill="white"/>
</clipPath>
</defs>
</svg>
