<svg width="18" height="19" viewBox="0 0 18 19" fill="none" xmlns="http://www.w3.org/2000/svg">
<path d="M1.5 19C1.1 19 0.75 18.8575 0.45 18.5725C0.15 18.2875 0 17.955 0 17.575V2.85C0 2.47 0.15 2.1375 0.45 1.8525C0.75 1.5675 1.1 1.425 1.5 1.425H3.125V0H4.75V1.425H13.25V0H14.875V1.425H16.5C16.9 1.425 17.25 1.5675 17.55 1.8525C17.85 2.1375 18 2.47 18 2.85V17.575C18 17.955 17.85 18.2875 17.55 18.5725C17.25 18.8575 16.9 19 16.5 19H1.5ZM1.5 17.575H16.5V7.3625H1.5V17.575ZM1.5 5.9375H16.5V2.85H1.5V5.9375ZM1.5 5.9375V2.85V5.9375ZM9 11.4C8.71667 11.4 8.47917 11.309 8.2875 11.1269C8.09583 10.9448 8 10.7192 8 10.45C8 10.1808 8.09583 9.95521 8.2875 9.77313C8.47917 9.59104 8.71667 9.5 9 9.5C9.28333 9.5 9.52083 9.59104 9.7125 9.77313C9.90417 9.95521 10 10.1808 10 10.45C10 10.7192 9.90417 10.9448 9.7125 11.1269C9.52083 11.309 9.28333 11.4 9 11.4ZM5 11.4C4.71667 11.4 4.47917 11.309 4.2875 11.1269C4.09583 10.9448 4 10.7192 4 10.45C4 10.1808 4.09583 9.95521 4.2875 9.77313C4.47917 9.59104 4.71667 9.5 5 9.5C5.28333 9.5 5.52083 9.59104 5.7125 9.77313C5.90417 9.95521 6 10.1808 6 10.45C6 10.7192 5.90417 10.9448 5.7125 11.1269C5.52083 11.309 5.28333 11.4 5 11.4ZM13 11.4C12.7167 11.4 12.4792 11.309 12.2875 11.1269C12.0958 10.9448 12 10.7192 12 10.45C12 10.1808 12.0958 9.95521 12.2875 9.77313C12.4792 9.59104 12.7167 9.5 13 9.5C13.2833 9.5 13.5208 9.59104 13.7125 9.77313C13.9042 9.95521 14 10.1808 14 10.45C14 10.7192 13.9042 10.9448 13.7125 11.1269C13.5208 11.309 13.2833 11.4 13 11.4ZM9 15.2C8.71667 15.2 8.47917 15.109 8.2875 14.9269C8.09583 14.7448 8 14.5192 8 14.25C8 13.9808 8.09583 13.7552 8.2875 13.5731C8.47917 13.391 8.71667 13.3 9 13.3C9.28333 13.3 9.52083 13.391 9.7125 13.5731C9.90417 13.7552 10 13.9808 10 14.25C10 14.5192 9.90417 14.7448 9.7125 14.9269C9.52083 15.109 9.28333 15.2 9 15.2ZM5 15.2C4.71667 15.2 4.47917 15.109 4.2875 14.9269C4.09583 14.7448 4 14.5192 4 14.25C4 13.9808 4.09583 13.7552 4.2875 13.5731C4.47917 13.391 4.71667 13.3 5 13.3C5.28333 13.3 5.52083 13.391 5.7125 13.5731C5.90417 13.7552 6 13.9808 6 14.25C6 14.5192 5.90417 14.7448 5.7125 14.9269C5.52083 15.109 5.28333 15.2 5 15.2ZM13 15.2C12.7167 15.2 12.4792 15.109 12.2875 14.9269C12.0958 14.7448 12 14.5192 12 14.25C12 13.9808 12.0958 13.7552 12.2875 13.5731C12.4792 13.391 12.7167 13.3 13 13.3C13.2833 13.3 13.5208 13.391 13.7125 13.5731C13.9042 13.7552 14 13.9808 14 14.25C14 14.5192 13.9042 14.7448 13.7125 14.9269C13.5208 15.109 13.2833 15.2 13 15.2Z" fill="#333333" fill-opacity="0.34"/>
</svg>
