<svg width="25" height="24" viewBox="0 0 25 24" fill="none" xmlns="http://www.w3.org/2000/svg">
<g clip-path="url(#clip0_50_1428)">
<path d="M20.5399 16.857C23.0914 14.58 24.5014 12 24.5014 12C24.5014 12 20.0014 3.75 12.5014 3.75C11.0608 3.75496 9.63649 4.05514 8.31641 4.632L9.47141 5.7885C10.4426 5.43473 11.4678 5.25252 12.5014 5.25C15.6814 5.25 18.3199 7.002 20.2534 8.9355C21.1839 9.87104 22.0181 10.8977 22.7434 12C22.6564 12.1305 22.5604 12.2745 22.4509 12.432C21.9484 13.152 21.2059 14.112 20.2534 15.0645C20.0059 15.312 19.7479 15.5565 19.4779 15.7935L20.5399 16.857Z" fill="#9C9A9A"/>
<path d="M17.4451 13.764C17.7798 12.8278 17.8418 11.8158 17.6238 10.8457C17.4058 9.87558 16.9169 8.98733 16.2138 8.28427C15.5108 7.58121 14.6225 7.09225 13.6524 6.87429C12.6823 6.65632 11.6703 6.71831 10.7341 7.05304L11.9686 8.28754C12.545 8.20503 13.1328 8.25791 13.6853 8.44199C14.2377 8.62607 14.7398 8.93628 15.1515 9.34806C15.5633 9.75984 15.8735 10.2619 16.0576 10.8143C16.2417 11.3668 16.2946 11.9546 16.2121 12.531L17.4451 13.764ZM13.0306 15.7125L14.2636 16.9455C13.3273 17.2803 12.3153 17.3423 11.3452 17.1243C10.3751 16.9063 9.48684 16.4174 8.78378 15.7143C8.08072 15.0113 7.59177 14.123 7.3738 13.1529C7.15583 12.1828 7.21782 11.1708 7.55256 10.2345L8.78705 11.469C8.70454 12.0455 8.75742 12.6333 8.9415 13.1857C9.12558 13.7382 9.43579 14.2402 9.84757 14.652C10.2593 15.0638 10.7614 15.374 11.3138 15.5581C11.8663 15.7422 12.4541 15.7951 13.0306 15.7125Z" fill="#9C9A9A"/>
<path d="M5.525 8.20507C5.255 8.44507 4.9955 8.68807 4.748 8.93557C3.81747 9.8711 2.98328 10.8978 2.258 12.0001L2.5505 12.4321C3.053 13.1521 3.7955 14.1121 4.748 15.0646C6.6815 16.9981 9.3215 18.7501 12.5 18.7501C13.574 18.7501 14.585 18.5506 15.53 18.2101L16.685 19.3681C15.3649 19.9449 13.9406 20.2451 12.5 20.2501C5 20.2501 0.5 12.0001 0.5 12.0001C0.5 12.0001 1.9085 9.41857 4.4615 7.14307L5.5235 8.20657L5.525 8.20507Z" fill="#9C9A9A"/>
<path fill-rule="evenodd" clip-rule="evenodd" d="M20.9688 21.5312L2.96875 3.53124L4.03075 2.46924L22.0308 20.4692L20.9688 21.5312Z" fill="black" fill-opacity="0.34"/>
</g>
<defs>
<clipPath id="clip0_50_1428">
<rect width="24" height="24" fill="white" transform="translate(0.5)"/>
</clipPath>
</defs>
</svg>
