<svg width="24" height="24" viewBox="0 0 24 24" fill="none" xmlns="http://www.w3.org/2000/svg">
<path d="M9 7L13 7" stroke="black" stroke-width="2" stroke-linecap="round"/>
<path d="M9 15L12 15" stroke="black" stroke-width="2" stroke-linecap="round"/>
<path d="M9 11L15 11" stroke="black" stroke-width="2" stroke-linecap="round"/>
<path d="M19 11V9C19 6.17157 19 4.75736 18.1213 3.87868C17.2426 3 15.8284 3 13 3H11C8.17157 3 6.75736 3 5.87868 3.87868C5 4.75736 5 6.17157 5 9V15C5 17.8284 5 19.2426 5.87868 20.1213C6.75736 21 8.17157 21 11 21H12" stroke="black" stroke-width="2"/>
<circle cx="17" cy="15" r="2" stroke="black" stroke-width="1.5" stroke-linecap="round"/>
<path d="M19.8978 21.2235C19.7269 20.5856 19.3502 20.022 18.8263 19.6199C18.3024 19.2179 17.6604 19 17 19C16.3396 19 15.6976 19.2179 15.1737 19.6199C14.6498 20.022 14.2731 20.5856 14.1022 21.2235" stroke="black" stroke-width="1.84615" stroke-linecap="round"/>
</svg>
