<svg width="24" height="24" viewBox="0 0 24 24" fill="none" xmlns="http://www.w3.org/2000/svg">
<path fill-rule="evenodd" clip-rule="evenodd" d="M23.0305 3.96888C23.1003 4.03855 23.1557 4.12131 23.1936 4.21243C23.2314 4.30355 23.2508 4.40123 23.2508 4.49988C23.2508 4.59853 23.2314 4.69621 23.1936 4.78733C23.1557 4.87845 23.1003 4.96121 23.0305 5.03088L12.5305 15.5309C12.4608 15.6007 12.3781 15.6561 12.2869 15.6939C12.1958 15.7318 12.0981 15.7512 11.9995 15.7512C11.9008 15.7512 11.8032 15.7318 11.712 15.6939C11.6209 15.6561 11.5382 15.6007 11.4685 15.5309L6.96848 11.0309C6.89875 10.9611 6.84344 10.8784 6.8057 10.7873C6.76796 10.6961 6.74854 10.5985 6.74854 10.4999C6.74854 10.4013 6.76796 10.3036 6.8057 10.2125C6.84344 10.1214 6.89875 10.0386 6.96848 9.96888C7.03821 9.89915 7.121 9.84383 7.21211 9.8061C7.30322 9.76836 7.40087 9.74893 7.49948 9.74893C7.5981 9.74893 7.69575 9.76836 7.78686 9.8061C7.87797 9.84383 7.96075 9.89915 8.03048 9.96888L11.9995 13.9394L21.9685 3.96888C22.0382 3.89904 22.1209 3.84362 22.212 3.80581C22.3032 3.768 22.4008 3.74854 22.4995 3.74854C22.5981 3.74854 22.6958 3.768 22.7869 3.80581C22.878 3.84362 22.9608 3.89904 23.0305 3.96888Z" fill="white"/>
<path fill-rule="evenodd" clip-rule="evenodd" d="M12 3.75016C10.3683 3.75016 8.77326 4.23401 7.41656 5.14054C6.05985 6.04706 5.00243 7.33553 4.37801 8.84302C3.75358 10.3505 3.59021 12.0093 3.90854 13.6097C4.22686 15.21 5.0126 16.68 6.16638 17.8338C7.32017 18.9876 8.79018 19.7733 10.3905 20.0916C11.9909 20.41 13.6497 20.2466 15.1572 19.6222C16.6646 18.9977 17.9531 17.9403 18.8596 16.5836C19.7662 15.2269 20.25 13.6319 20.25 12.0002C20.25 11.8012 20.329 11.6105 20.4697 11.4698C20.6103 11.3292 20.8011 11.2502 21 11.2502C21.1989 11.2502 21.3897 11.3292 21.5303 11.4698C21.671 11.6105 21.75 11.8012 21.75 12.0002C21.7497 14.1464 21.0413 16.2326 19.7345 17.9352C18.4278 19.6378 16.5958 20.8616 14.5226 21.4169C12.4494 21.9722 10.2509 21.8279 8.26813 21.0064C6.28531 20.1849 4.62896 18.7321 3.55595 16.8734C2.48294 15.0146 2.05324 12.8537 2.33349 10.7258C2.61373 8.59793 3.58826 6.62198 5.10594 5.1044C6.62362 3.58681 8.59964 2.61241 10.7275 2.3323C12.8554 2.05219 15.0163 2.48203 16.875 3.55516C16.9646 3.60205 17.0439 3.66658 17.1079 3.74487C17.1719 3.82317 17.2195 3.91361 17.2477 4.01076C17.2759 4.1079 17.2841 4.20975 17.2719 4.31016C17.2597 4.41057 17.2273 4.50748 17.1767 4.59506C17.1261 4.68263 17.0583 4.75906 16.9773 4.81975C16.8964 4.88043 16.8041 4.92412 16.7058 4.94819C16.6076 4.97225 16.5055 4.9762 16.4056 4.95978C16.3058 4.94336 16.2104 4.90693 16.125 4.85266C14.8714 4.1277 13.4482 3.74733 12 3.75016Z" fill="white"/>
</svg>
